<?xml version="1.0" encoding="UTF-8" standalone="no"?>
<!-- Created with Inkscape (http://www.inkscape.org/) -->

<svg
   xmlns:dc="http://purl.org/dc/elements/1.1/"
   xmlns:cc="http://creativecommons.org/ns#"
   xmlns:rdf="http://www.w3.org/1999/02/22-rdf-syntax-ns#"
   xmlns:svg="http://www.w3.org/2000/svg"
   xmlns="http://www.w3.org/2000/svg"
   xmlns:xlink="http://www.w3.org/1999/xlink"
   xmlns:sodipodi="http://sodipodi.sourceforge.net/DTD/sodipodi-0.dtd"
   xmlns:inkscape="http://www.inkscape.org/namespaces/inkscape"
   id="svg2"
   version="1.1"
   inkscape:version="0.48.1 r9760"
   width="809"
   height="680"
   viewBox="0 0 161 136"
   sodipodi:docname="yukkuri_reimu.svg">
  <metadata
     id="metadata8">
    <rdf:RDF>
      <cc:Work
         rdf:about="">
        <dc:format>image/svg+xml</dc:format>
        <dc:type
           rdf:resource="http://purl.org/dc/dcmitype/StillImage" />
        <dc:title />
      </cc:Work>
    </rdf:RDF>
  </metadata>
  <defs
     id="defs6">
    <linearGradient
       id="linearGradient4128">
      <stop
         style="stop-color:#ffa780;stop-opacity:1;"
         offset="0"
         id="stop4130" />
      <stop
         style="stop-color:#ffc7ad;stop-opacity:0;"
         offset="1"
         id="stop4132" />
    </linearGradient>
    <linearGradient
       id="linearGradient4024">
      <stop
         style="stop-color:#532c35;stop-opacity:1;"
         offset="0"
         id="stop4026" />
      <stop
         style="stop-color:#7c4c57;stop-opacity:1;"
         offset="1"
         id="stop4028" />
    </linearGradient>
    <linearGradient
       inkscape:collect="always"
       xlink:href="#linearGradient4024"
       id="linearGradient4038"
       x1="207.22211"
       y1="354.38675"
       x2="205.87477"
       y2="406.67499"
       gradientUnits="userSpaceOnUse" />
    <linearGradient
       inkscape:collect="always"
       xlink:href="#linearGradient4024"
       id="linearGradient4108"
       x1="430.37262"
       y1="351.64435"
       x2="429.82413"
       y2="401.00739"
       gradientUnits="userSpaceOnUse" />
    <radialGradient
       inkscape:collect="always"
       xlink:href="#linearGradient4128"
       id="radialGradient4134"
       cx="188.31087"
       cy="449.63913"
       fx="188.31087"
       fy="449.63913"
       r="58.504349"
       gradientTransform="matrix(1.6054601,0,0,0.57235727,-135.59875,169.87933)"
       gradientUnits="userSpaceOnUse" />
    <radialGradient
       inkscape:collect="always"
       xlink:href="#linearGradient4128"
       id="radialGradient4179"
       gradientUnits="userSpaceOnUse"
       gradientTransform="matrix(1,0,0,0.39999999,0,269.78348)"
       cx="188.31087"
       cy="449.63913"
       fx="188.31087"
       fy="449.63913"
       r="58.504349" />
  </defs>
  <sodipodi:namedview
     pagecolor="#ffffff"
     bordercolor="#666666"
     borderopacity="1"
     objecttolerance="10"
     gridtolerance="10"
     guidetolerance="10"
     inkscape:pageopacity="0"
     inkscape:pageshadow="2"
     inkscape:window-width="1440"
     inkscape:window-height="848"
     id="namedview4"
     showgrid="false"
     inkscape:zoom="0.68370987"
     inkscape:cx="466.71657"
     inkscape:cy="297.8253"
     inkscape:window-x="0"
     inkscape:window-y="0"
     inkscape:window-maximized="1"
     inkscape:current-layer="layer6"
     showguides="true"
     inkscape:guide-bbox="true"
     inkscape:object-nodes="false"
     inkscape:snap-smooth-nodes="false"
     inkscape:object-paths="false" />
  <g
     inkscape:groupmode="layer"
     id="layer1"
     inkscape:label="bg"
     sodipodi:insensitive="true"
     style="display:none">
    <image
       width="161"
       height="136"
       xlink:href="file:///home/balmung/www/htdocs/svg/yukkuri_reimu.png"
       id="image10"
       x="0"
       y="0" />
  </g>
  <g
     inkscape:groupmode="layer"
     id="layer4"
     inkscape:label="skin"
     style="display:inline"
     sodipodi:insensitive="true">
    <path
       style="fill:#fee0c9;fill-opacity:1;stroke:none"
       d="m 108.96435,408.68609 51.92261,-83.3687 154.30522,-71.66783 176.24434,16.82 54.11653,75.32435 8.04434,176.97565 -21.74948,42.17341 -21.71863,20.42585 -25.59696,19.65019 -23.52852,14.9962 -31.28517,11.37642 -27.92395,8.79088 -38.26616,4.65399 -39.81749,0 -39.81749,-5.68821 -34.64639,-9.04943 -31.02662,-11.11787 -29.47528,-16.28897 -31.28517,-28.44107 -19.90875,-23.01141 -23.78707,-43.95437 z"
       id="path4167"
       inkscape:connector-curvature="0"
       transform="matrix(0.2,0,0,0.2,-0.4,0)" />
    <path
       style="fill:#b98d6b;fill-opacity:1;stroke:none"
       d="m 124.10646,417.82509 c 9.8407,-18.49065 18.23598,-37.94491 33.61217,-52.74524 l 12.30963,-8.68203 8.41,-4.75347 9.87261,-4.02218 12.58647,-1.93396 18.09886,1.29278 12.41064,2.06844 c 1.64659,8.37238 3.09731,12.50063 5.25222,18.37579 5.37,-31.24049 12.32205,-40.10479 18.01775,-45.26552 l 13.70342,10.08365 c 1.77552,26.8371 5.9598,33.19974 9.56654,44.47148 13.98675,-33.26775 26.26354,-68.67295 43.82715,-97.46962 l 41.31869,62.89218 c 2.92647,10.87844 7.99523,19.31911 14.95499,26.60389 2.01893,-17.21221 6.44574,-33.35425 14.66284,-47.81172 l 4.75348,27.97239 7.67869,-6.39891 c 0.36565,-8.33265 0.2142,-19.06266 0.0627,-31.51644 6.66111,13.09734 18.9225,25.75084 29.55509,35.53862 l 24.13304,-1.46261 23.40174,10.60391 c 6.97749,-2.84559 10.42073,-12.84723 13.52152,-23.18439 12.59519,15.92104 24.38687,33.1546 37.66979,42.1983 l 0.7313,-35.28543 -16.45435,-70.38805 -138.94783,-39.49043 -81.90608,-10.96957 -122.85913,23.40174 -49.36305,79.34652 -1.46261,54.84783 z"
       id="path3983"
       inkscape:connector-curvature="0"
       transform="matrix(0.2,0,0,0.2,-0.4,0)"
       sodipodi:nodetypes="cccccccccccccccccccccccccccccccc" />
    <path
       style="fill:url(#radialGradient4134);fill-opacity:1;stroke:none"
       d="m 166.71875,393.75 c -22.07055,0 -42.34263,2.73855 -58.375,7.28125 L 107.375,453.1875 c 16.17716,4.70661 36.83498,7.53125 59.34375,7.53125 51.87412,0 93.9375,-15.00653 93.9375,-33.5 0,-18.49347 -42.06338,-33.46875 -93.9375,-33.46875 z"
       transform="matrix(0.2,0,0,0.2,-0.4,0)"
       id="path4110"
       inkscape:connector-curvature="0" />
    <path
       style="fill:#e06d53;fill-opacity:1;stroke:none"
       d="m 285.18631,515.55894 3.61977,-20.16731 16.80609,-13.18631 17.58175,0.25856 17.32319,-1.03422 14.9962,-1.55133 12.6692,-4.13689 2.84411,16.80609 -3.87833,26.11407 -3.61977,12.41064 -10.85932,11.11787 -11.37642,4.91255 -8.79088,0.25856 -14.22053,-1.80989 -10.60076,-5.42966 -17.3232,-16.03042 z"
       id="path4138"
       inkscape:connector-curvature="0"
       transform="matrix(0.2,0,0,0.2,-0.4,0)" />
    <path
       style="fill:#a7412b;fill-opacity:1;stroke:none"
       d="m 287.25475,519.43726 c 3.97699,-16.94044 10.20351,-26.57575 28.18251,-36.97338 l -40.59315,-0.25856 z"
       id="path4136"
       inkscape:connector-curvature="0"
       transform="matrix(0.2,0,0,0.2,-0.4,0)"
       sodipodi:nodetypes="cccc" />
    <path
       style="fill:#b98d6b;fill-opacity:1;stroke:none"
       d="m 585.11027,402.8289 8.79087,-5.42966 18.35742,-6.20532 22.75285,37.23194 -1.29278,40.59315 -9.82509,34.38783 -35.42206,15.51331 -6.72243,-2.8441 1.80989,-63.86312 z"
       id="path4145"
       inkscape:connector-curvature="0"
       transform="matrix(0.2,0,0,0.2,-0.4,0)" />
    <path
       transform="matrix(0.32109203,0,0,0.28617864,34.119793,-43.437247)"
       d="m 246.81522,449.63913 a 58.504349,23.401739 0 1 1 -117.0087,0 58.504349,23.401739 0 1 1 117.0087,0 z"
       sodipodi:ry="23.401739"
       sodipodi:rx="58.504349"
       sodipodi:cy="449.63913"
       sodipodi:cx="188.31087"
       id="path4177"
       style="fill:url(#radialGradient4179);fill-opacity:1;stroke:none"
       sodipodi:type="arc" />
  </g>
  <g
     inkscape:groupmode="layer"
     id="layer6"
     inkscape:label="cloth"
     style="display:inline">
    <path
       style="fill:#880e0a;fill-opacity:1;stroke:none"
       d="m 555.63498,400.24335 26.11407,1.03422 1.80989,1.03422 0.77566,42.92015 -2.58555,72.91255 -9.30798,2.32699 -17.3232,1.03422 -6.98099,-59.20912 z"
       id="path4153"
       inkscape:connector-curvature="0"
       transform="matrix(0.2,0,0,0.2,-0.4,0)" />
    <path
       style="fill:#d61d14;fill-opacity:1;stroke:none"
       d="m 530.29658,403.60456 11.89354,-3.23194 16.15969,-0.12927 0.25856,121.39163 -18.35742,-1.42205 -9.43726,-3.87833 0.12928,-65.673 z"
       id="path4151"
       inkscape:connector-curvature="0"
       transform="matrix(0.2,0,0,0.2,-0.4,0)" />
    <path
       style="fill:#ffffff;fill-opacity:1;stroke:none"
       d="m 526.1597,401.27757 -4.91255,-5.17111 -0.25856,-9.30798 6.46388,-4.65399 7.23955,0.25855 2.32699,-13.70342 11.89354,-1.80989 41.88593,-1.03422 14.9962,6.98099 0,18.87453 -10.34221,4.65399 -10.3422,6.46388 -10.08365,-1.80989 -14.47909,-1.29277 -17.32319,1.29277 -13.70343,2.84411 z"
       id="path4141"
       inkscape:connector-curvature="0"
       transform="matrix(0.2,0,0,0.2,-0.4,0)" />
    <path
       style="fill:#ffffff;fill-opacity:1;stroke:none"
       d="m 529.0038,515.81749 11.89354,4.39544 16.03042,0.25855 23.0114,-2.32699 9.30799,-0.25856 11.37643,2.84411 -2.84411,24.30418 -24.56274,14.9962 -24.82129,4.91255 -14.9962,-19.65019 -5.68821,1.55133 -2.84411,-3.61978 -3.10266,-7.49809 -6.20532,-3.87833 -1.55133,-6.72243 8.79087,-5.94677 z"
       id="path4143"
       inkscape:connector-curvature="0"
       transform="matrix(0.2,0,0,0.2,-0.4,0)" />
    <path
       style="fill:#ffffff;fill-opacity:1;stroke:none"
       d="m 558.39054,414.31019 c -0.52965,0.19064 -1.08841,0.27654 -1.6851,0.22633 -4.46584,-0.37578 -5.02702,-9.62994 -9.50696,-9.50696 -3.92586,0.10777 -3.96648,8.27306 -7.86152,8.77566 -3.83883,0.49534 -9.68978,-6.39892 -9.68978,-6.39892 l -0.18283,3.65652 0,0 c 0,0 5.61224,8.99824 10.05544,8.77566 4.00467,-0.20061 4.21757,-8.74883 8.22717,-8.77566 4.56852,-0.0306 4.94614,9.6057 9.50696,9.87261 0.42049,0.0246 0.81822,-0.0188 1.19682,-0.11956 0.84387,-2.16856 0.81963,-4.33712 -0.0602,-6.50568 z"
       id="path4255"
       transform="matrix(0.2,0,0,0.2,-0.4,0)"
       inkscape:connector-curvature="0"
       sodipodi:nodetypes="cssscccssscc" />
    <path
       style="fill:#b6b0b0;fill-opacity:1;stroke:none"
       d="m 558.45074,420.81587 c 4.36963,-1.16276 6.19114,-9.96151 11.05252,-9.93587 4.93134,0.026 6.45632,10.22471 11.33522,9.50695 2.30773,-0.33951 3.83935,-5.85043 3.83935,-5.85043 l -1.46261,-4.38783 c 0,0 -0.98629,4.79814 -2.92522,5.11913 -4.81328,0.79683 -6.09763,-9.43126 -10.96956,-9.68978 -4.55223,-0.24156 -6.89764,7.28079 -10.9299,8.73215 z"
       id="path4147"
       transform="matrix(0.2,0,0,0.2,-0.4,0)"
       inkscape:connector-curvature="0"
       sodipodi:nodetypes="cssccsscc" />
    <path
       style="fill:#ffffff;fill-opacity:1;stroke:none"
       d="m 558.59935,515.14086 c -1.24867,0.95932 -2.57301,1.63097 -4.08782,1.59544 -4.88353,-0.11454 -7.36887,-8.25161 -12.24935,-8.04434 -3.2522,0.13812 -4.42938,6.22753 -7.6787,6.03326 -1.72063,-0.10287 -3.65652,-3.65653 -3.65652,-3.65653 l 0.18283,-3.47369 0,0 c 0,0 2.03541,2.55792 3.47369,2.55956 3.40076,0.004 4.82921,-5.89541 8.22718,-6.03326 4.64738,-0.18854 7.23251,7.32617 11.88369,7.31305 1.46443,-0.004 2.73244,-0.69925 3.92012,-1.67455 0.84936,1.53737 0.85919,3.32659 -0.0151,5.38106 z"
       id="path4260"
       transform="matrix(0.2,0,0,0.2,-0.4,0)"
       inkscape:connector-curvature="0"
       sodipodi:nodetypes="csssccccsscc" />
    <path
       style="fill:#b6b0b0;stroke:none;stroke-opacity:1;fill-opacity:1"
       d="m 558.61447,509.7598 c 2.83065,-2.32449 5.20503,-6.24057 8.69488,-6.18698 4.61378,0.0708 6.90866,7.89208 11.51805,7.6787 1.6448,-0.0761 3.83934,-3.10804 3.83934,-3.10804 l -0.54847,4.57065 c 0,0 -1.80856,2.2658 -3.10805,2.37674 -4.31846,0.36868 -7.18531,-6.14522 -11.51804,-6.03326 -3.51086,0.0907 -5.9986,3.85972 -8.89283,6.08325 z"
       id="path4149"
       transform="matrix(0.2,0,0,0.2,-0.4,0)"
       inkscape:connector-curvature="0"
       sodipodi:nodetypes="cccccsscc" />
    <path
       style="fill:#880e0a;fill-opacity:1;stroke:none"
       d="m 112.21293,391.71103 12.15209,1.55133 0,87.39163 1.80989,21.97719 -6.72244,2.06844 -6.72243,1.29278 z"
       id="path4165"
       inkscape:connector-curvature="0"
       transform="matrix(0.2,0,0,0.2,-0.4,0)" />
    <path
       style="fill:#d61d14;fill-opacity:1;stroke:none"
       d="m 89.950435,396.61956 9.141305,-3.83934 15.90587,-0.36566 -0.36565,112.98653 -9.14131,0.18282 -15.540215,-3.83935 -0.548478,-49.36304 z"
       id="path4163"
       inkscape:connector-curvature="0"
       transform="matrix(0.2,0,0,0.2,-0.4,0)" />
    <path
       style="fill:#ffffff;fill-opacity:1;stroke:none"
       d="m 89.584783,397.16804 -6.398913,-8.22717 9.141305,-14.26044 15.357395,-10.05543 12.43217,0.7313 2.37674,27.97239 -10.05544,-2.19391 -11.88369,1.64544 z"
       id="path4155"
       inkscape:connector-curvature="0"
       transform="matrix(0.2,0,0,0.2,-0.4,0)" />
    <path
       style="fill:#ffffff;fill-opacity:1;stroke:none"
       d="m 71.119348,512.34848 7.130218,-4.75348 12.249348,-5.48478 15.357396,3.10804 20.84217,-2.74239 7.31304,34.00565 -12.615,-4.57065 -13.16348,16.45435 -5.85043,-0.36566 -1.09696,-13.71195 0.18283,-8.04435 -6.947392,1.09696 -7.861522,3.10804 -2.742391,-1.64544 3.473695,-12.79782 -9.32413,0.7313 -4.753479,-1.46261 z"
       id="path4157"
       inkscape:connector-curvature="0"
       transform="matrix(0.2,0,0,0.2,-0.4,0)" />
    <path
       style="fill:#ffffff;fill-opacity:1;stroke:none"
       d="m 114.94576,406.30915 c -4.28068,-0.15562 -5.80679,-8.61833 -10.18641,-8.4098 -3.83113,0.18242 -4.44351,7.41608 -8.227175,8.04434 -2.576535,0.42782 -7.072099,-3.37335 -7.072099,-3.37335 l 0,0 0,0 0,4.13688 c 0,0 4.801602,5.20271 7.803403,4.72126 3.883371,-0.62284 3.757271,-8.65683 7.678691,-8.95848 4.39142,-0.3378 5.69551,8.60278 9.97101,8.77622 0.65232,-1.57442 0.46985,-3.24159 0.0326,-4.93707 z"
       id="path4265"
       transform="matrix(0.2,0,0,0.2,-0.4,0)"
       inkscape:connector-curvature="0"
       sodipodi:nodetypes="cssccccsscc" />
    <path
       style="fill:#b6b0b0;stroke:none;stroke-opacity:1;fill-opacity:1"
       d="m 114.91318,411.24622 c 0.0878,0.004 0.17688,0.003 0.26726,-5.7e-4 3.74565,-0.16541 7.86152,-8.04435 7.86152,-8.04435 l -0.36565,-3.83935 c 0,0 -4.0911,6.83085 -7.49587,6.9474 -0.0791,0.003 -0.15736,0.003 -0.23468,-2e-4 z"
       id="path4159"
       transform="matrix(0.2,0,0,0.2,-0.4,0)"
       inkscape:connector-curvature="0"
       sodipodi:nodetypes="ccccscc" />
    <path
       style="fill:#ffffff;fill-opacity:1;stroke:none"
       d="m 114.62787,488.74994 c -0.18607,-0.007 -0.3678,-0.003 -0.54439,0.014 -4.14036,0.3961 -5.53157,7.95517 -9.68978,7.86152 -4.401919,-0.0991 -5.550324,-7.93628 -9.872612,-8.77565 -1.778708,-0.34542 -5.119131,1.82826 -5.119131,1.82826 l 0,0 0,0 -0.182826,4.38783 c 0,0 3.147215,-1.61522 4.753478,-1.27978 4.583747,0.95723 6.287081,8.81358 10.969561,8.77565 4.11199,-0.0333 5.41064,-7.50136 9.50696,-7.86152 0.0661,-0.006 0.13281,-0.01 0.20015,-0.0123 0.46694,-1.50378 0.71848,-3.07218 -0.0214,-4.93801 z"
       id="path4270"
       transform="matrix(0.2,0,0,0.2,-0.4,0)"
       inkscape:connector-curvature="0"
       sodipodi:nodetypes="ccssccccssscc" />
    <path
       style="fill:#b6b0b0;stroke:none;stroke-opacity:1;fill-opacity:1"
       d="m 114.64928,493.68793 c 4.19892,-0.1496 10.76942,6.22837 10.76942,6.22837 l -0.73131,-5.48478 c 0,0 -6.04173,-5.52563 -10.05952,-5.68158 z"
       id="path4161"
       transform="matrix(0.2,0,0,0.2,-0.4,0)"
       inkscape:connector-curvature="0"
       sodipodi:nodetypes="ccccc" />
    <path
       style="fill:#d61d14;fill-opacity:1;stroke:none"
       d="m 102.64639,129.01901 12.15209,-9.04943 9.30798,-8.01521 4.654,-10.60076 -3.87833,-20.425854 -4.91255,-11.634981 3.10266,-9.04943 9.8251,-8.273764 16.80608,-7.239544 10.08365,-2.844107 26.37263,4.912548 43.95437,10.08365 39.30038,15.254753 13.70342,5.688213 -80.6692,39.041826 -61.01901,18.87452 z"
       id="path4196"
       inkscape:connector-curvature="0"
       transform="matrix(0.2,0,0,0.2,-0.4,0)" />
    <path
       style="fill:#ffffff;fill-opacity:1;stroke:none"
       d="m 127.81874,129.80127 c 3.79909,-6.02711 21.29124,-0.99348 22.9189,-8.79747 0.93395,-4.47795 -10.49379,-5.66572 -9.30798,-10.08365 2.03521,-7.5825 21.4222,0.79635 22.49429,-6.98099 0.3061,-2.22055 -1.2729,-3.51181 -3.61857,-4.446826 -2.86887,-0.204714 -5.78223,-0.96561 -8.53793,0.244334 l 0,0 0,0 c 0.53126,0.553132 0.82216,1.245842 0.78008,2.134052 -0.35617,7.51735 -19.45991,1.62393 -20.68441,9.04943 -0.64521,3.91261 9.45621,4.10598 8.79087,8.01521 -1.36711,8.03251 -20.14639,1.76413 -22.49429,9.56654 -0.0761,0.25301 -0.12672,0.51275 -0.15384,0.77816 2.62148,0.9044 4.57942,2.55529 9.81288,0.52121 z"
       id="path4250"
       transform="matrix(0.2,0,0,0.2,-0.4,0)"
       inkscape:connector-curvature="0"
       sodipodi:nodetypes="csssccccsssccc" />
    <path
       style="fill:#880e0a;fill-opacity:1;stroke:none"
       d="m 102.38783,128.5019 50.1597,2.58555 -19.39164,9.30799 L 104.45627,161.3384 98.768061,145.04943 96.18251,136 z"
       id="path4192"
       inkscape:connector-curvature="0"
       transform="matrix(0.2,0,0,0.2,-0.4,0)" />
    <path
       style="fill:#880e0a;fill-opacity:1;stroke:none"
       d="m 121.0038,71.102661 62.31179,27.923954 -53.52091,1.292775 -0.51711,-9.049429 L 123.3308,80.6692 z"
       id="path4194"
       inkscape:connector-curvature="0"
       transform="matrix(0.2,0,0,0.2,-0.4,0)" />
    <path
       style="fill:#ffffff;fill-opacity:1;stroke:none"
       d="m 87.13308,126.69201 0,-6.20532 -8.532319,-5.68821 -6.980989,-8.53232 -1.809886,-9.049431 2.844107,-5.946768 7.756654,0.775665 10.859315,8.532324 11.634978,-0.51711 4.91255,-5.171107 -1.55133,-7.756654 -13.186312,-8.015209 -7.239544,-5.429658 -1.03422,-10.600761 -0.258555,-9.56654 2.844106,-4.395437 6.205323,-0.775665 7.756652,1.809886 -2.585549,-10.859316 0.51711,-12.152091 4.653989,-1.809886 12.66921,3.361217 5.1711,-7.756654 5.1711,-5.171103 8.53232,5.171103 17.06464,22.494296 -9.30799,3.102662 -9.82509,6.980988 -7.75666,4.653993 -3.87832,5.946768 -0.51711,8.532319 9.04943,27.148289 -3.61977,8.53232 -6.98099,7.4981 -9.8251,6.72243 -8.01521,5.94677 z"
       id="path4190"
       inkscape:connector-curvature="0"
       transform="matrix(0.2,0,0,0.2,-0.4,0)" />
    <path
       style="fill:#b6b0b0;stroke:none;stroke-opacity:1;fill-opacity:1"
       d="m 118.00586,129.28006 c -0.59837,5.85749 10.23749,14.47659 10.23749,14.47659 l 0,0 0,0 7.23954,-3.61977 c 0,0 -9.07627,-4.84769 -8.27376,-8.79087 0.11869,-0.58319 0.32599,-1.09479 0.60961,-1.54474 z"
       id="path4245"
       transform="matrix(0.2,0,0,0.2,-0.4,0)"
       inkscape:connector-curvature="0"
       sodipodi:nodetypes="cccccscc" />
    <path
       style="fill:#ffffff;stroke:none;stroke-opacity:1;fill-opacity:1"
       d="m 153.78018,85.808048 c 3.23833,-1.256014 6.16427,-2.648887 6.00689,-5.397403 -0.32799,-5.728235 -15.47716,-3.657844 -14.47908,-9.307984 1.09115,-6.176955 15.49757,1.44583 18.35741,-4.136883 2.00708,-3.918027 -7.8254,-8.640116 -5.1711,-12.152091 4.13802,-5.475114 16.52055,8.229018 20.42585,2.585551 2.9397,-4.24811 -7.23954,-13.703422 -7.23954,-13.703422 l -3.87833,-0.51711 c 0,0 6.50644,6.763132 4.39544,9.56654 -4.14262,5.501417 -15.93225,-8.321321 -20.42586,-3.102662 -3.23736,3.759713 6.79237,9.876497 4.39544,14.220533 -4.00971,7.266925 -23.14546,-1.786922 -24.04563,6.463878 -0.76927,7.051039 18.06023,2.779115 18.87453,9.825095 0.17366,1.502603 -0.57303,2.642855 -1.81138,3.590088 0.33663,1.148298 2.02006,1.778599 4.59536,2.06587 z"
       id="path4241"
       transform="matrix(0.2,0,0,0.2,-0.4,0)"
       inkscape:connector-curvature="0"
       sodipodi:nodetypes="csssssccssssscc" />
    <path
       style="fill:#b6b0b0;stroke:none;stroke-opacity:1;fill-opacity:1"
       d="m 160.30538,99.492334 c -5.28418,-2.106353 -14.45913,-2.404836 -14.73884,-7.446708 -0.18676,-3.366403 4.24771,-4.699356 8.21364,-6.237578 l -4.59536,-2.06587 c -4.06531,3.109601 -13.42934,4.139042 -12.92626,9.079114 0.53919,5.294718 12.32918,3.604766 15.50889,6.915376 z"
       id="path4184"
       transform="matrix(0.2,0,0,0.2,-0.4,0)"
       inkscape:connector-curvature="0"
       sodipodi:nodetypes="csccscc" />
    <path
       style="fill:#b6b0b0;fill-opacity:1;stroke:none"
       d="m 102.64639,128.76046 -13.703424,-1.03423 -12.152091,0 -2.326997,2.327 7.498099,13.70342 -15.771863,4.39544 -10.60076,6.20532 0.258555,8.01521 8.532319,11.89354 15.513308,10.85931 11.376426,-10.3422 13.703418,-13.96198 -6.205319,-12.92775 -0.51711,-12.41065 z"
       id="path4186"
       inkscape:connector-curvature="0"
       transform="matrix(0.2,0,0,0.2,-0.4,0)" />
    <path
       style="fill:#b6b0b0;fill-opacity:1;stroke:none"
       d="m 84.806084,59.209124 c 13.029996,0.355715 24.132486,6.01074 35.163496,12.669202 l 10.60076,20.684411 -1.29277,7.239546 c -11.98505,0.829907 -16.51903,-2.242193 -20.68441,-5.42966 L 106.0076,86.098858 96.69962,82.220531 85.064639,73.429657 z"
       id="path4188"
       inkscape:connector-curvature="0"
       transform="matrix(0.2,0,0,0.2,-0.4,0)"
       sodipodi:nodetypes="ccccccccc" />
    <path
       style="fill:#b6b0b0;fill-opacity:1;stroke:none"
       d="m 114.81478,537.7613 c 2.89367,-4.35628 1.9412,-33.75294 0,-31.81174 l 11.70087,-4.02217 6.94739,33.64 z"
       id="path4198"
       inkscape:connector-curvature="0"
       transform="matrix(0.2,0,0,0.2,-0.4,0)"
       sodipodi:nodetypes="ccccc" />
    <path
       style="fill:#b6b0b0;fill-opacity:1;stroke:none"
       d="m 562.0074,540.32087 c 0.79914,-4.86984 1.75024,-9.61812 -2.19392,-18.28261 l 22.30478,-4.38783 17.91696,2.19392 -1.82826,16.45434 c 0,0 -6.21609,18.28261 -7.6787,18.28261 -1.4626,0 -26.6926,3.29087 -26.6926,3.29087 z"
       id="path4200"
       inkscape:connector-curvature="0"
       transform="matrix(0.2,0,0,0.2,-0.4,0)"
       sodipodi:nodetypes="cccccscc" />
    <path
       style="fill:#b6b0b0;fill-opacity:1;stroke:none"
       d="m 556.88826,381.26217 c 0.90958,6.43166 3.39452,12.07565 2.55957,19.37957 l 20.47652,1.09695 6.94739,-1.09695 14.99174,-5.48479 6.58174,-14.62608 -13.89478,-13.52913 -29.61783,-1.09696 z"
       id="path4202"
       inkscape:connector-curvature="0"
       transform="matrix(0.2,0,0,0.2,-0.4,0)"
       sodipodi:nodetypes="ccccccccc" />
    <path
       style="fill:#d61d14;fill-opacity:1;stroke:none"
       d="m 531.58935,91.011406 20.42586,-6.205323 36.45627,-8.53232 40.07605,-4.395437 47.31559,-3.619772 31.54373,-1.292776 20.1673,41.110262 6.98098,19.90875 -8.27376,36.45627 -22.4943,39.04183 -63.08745,-27.40685 -81.70342,-66.19011 z"
       id="path4220"
       inkscape:connector-curvature="0"
       transform="matrix(0.2,0,0,0.2,-0.4,0)" />
    <path
       style="fill:#880e0a;fill-opacity:1;stroke:none"
       d="m 598.03802,134.96578 c 46.09404,0.0583 92.30827,7.02811 124.88213,16.80609 l -3.87832,27.92395 c -21.80524,-2.48119 -43.61144,-7.72131 -65.41445,-3.87833 23.1634,4.42218 39.64452,11.96276 52.48669,21.20152 l 17.06464,9.30799 -11.63498,38.52471 -42.14449,13.18631 -35.1635,-68.51711 z"
       id="path4218"
       inkscape:connector-curvature="0"
       transform="matrix(0.2,0,0,0.2,-0.4,0)"
       sodipodi:nodetypes="cccccccccc" />
    <path
       style="fill:#ffffff;fill-opacity:1;stroke:none"
       d="m 706.88974,65.414448 10.08365,-11.893537 9.56654,-4.653992 3.87832,4.653992 -0.51711,24.045628 8.27377,-1.292776 6.98098,1.034221 -0.77566,9.825095 -6.98099,6.463878 -1.29277,7.756653 8.53231,6.98099 10.60077,5.42966 5.68821,7.4981 -4.13688,10.85931 -4.13689,6.98099 2.84411,12.15209 -4.39544,2.06844 -9.30798,1.03422 -10.08365,30.50951 7.23954,3.10266 11.37643,2.58555 4.91255,5.68822 0.51711,10.60076 -5.42966,7.23954 -7.4981,2.327 -10.34221,-2.327 -10.85931,-2.58555 -9.04943,-5.42966 -6.72244,-4.65399 -6.20532,-5.68822 -1.55133,-6.20532 3.36122,-6.20532 6.46388,-3.36122 9.82509,-5.68821 3.36122,-25.3384 5.94677,-4.654 3.87832,-8.27376 0.77567,-8.79088 -2.60059,-8.11956 -9.1413,-10.96956 -4.93631,-2.37674 -9.50696,-6.21609 -7.67869,-7.861522 -0.73131,-7.678696 2.19392,-8.41 z"
       id="path4210"
       inkscape:connector-curvature="0"
       transform="matrix(0.2,0,0,0.2,-0.4,0)" />
    <path
       style="fill:#ffffff;fill-opacity:1;stroke:none"
       d="m 686.76446,143.16668 c 3.42368,-5.48672 20.1162,-3.8987 19.09105,-10.78645 -1.24176,-8.34316 -30.50758,0.54753 -32.06083,-10.60076 -0.80486,-5.77683 14.97824,-4.01386 14.47909,-9.8251 -0.68,-7.91672 -20.32516,-2.00236 -21.71864,-9.82509 -1.33598,-7.499938 17.07609,-8.453195 16.28898,-16.030422 -0.56072,-5.397875 -13.4575,-3.369528 -13.70342,-8.790874 -0.22264,-4.908256 11.63498,-9.04943 11.63498,-9.04943 l 0,0 0,0 8.53232,0 c 0,0 -11.6364,4.415207 -11.37643,9.307985 0.30059,5.657334 13.6385,3.672648 14.22053,9.307985 0.73879,7.153109 -17.12242,8.310363 -15.25475,15.254756 2.17721,8.09535 22.56189,-1.73609 24.30418,6.46387 1.4267,6.71468 -18.17748,6.4076 -16.03042,12.92776 1.80211,5.47263 35.49105,-1.54484 34.90495,10.60076 -0.43038,8.91868 -20.02327,6.08377 -23.97608,12.89742 -2.88322,-0.46054 -6.08791,-0.96676 -9.33551,-1.85241 z"
       id="path4232"
       transform="matrix(0.2,0,0,0.2,-0.4,0)"
       inkscape:connector-curvature="0"
       sodipodi:nodetypes="cssssssccccsssssscc" />
    <path
       style="fill:#ffffff;fill-opacity:1;stroke:none"
       d="m 673.53607,180.85635 c 2.21542,-4.04599 13.51054,-4.06811 17.47642,-4.93793 4.11858,-0.0139 7.62934,0.50698 10.67102,1.44071 -4.94516,1.91853 -16.27983,0.57239 -17.54663,5.6979 -0.0803,0.32489 0.005,1.39139 0.0208,1.69274 -4.42796,-0.99571 -7.60544,-2.41712 -10.62165,-3.89342 z"
       id="path4225"
       transform="matrix(0.2,0,0,0.2,-0.4,0)"
       inkscape:connector-curvature="0"
       sodipodi:nodetypes="cccsccc" />
    <path
       style="fill:#b6b0b0;fill-opacity:1;stroke:none"
       d="m 684.15772,184.74977 c 0.24416,4.60754 10.90974,5.89357 10.32137,10.97646 -0.32508,2.80833 -6.53922,2.34997 -6.72243,5.17111 -0.39494,6.08139 14.89541,7.15994 12.92775,12.92775 -1.96391,5.75684 -14.4358,-2.52894 -18.09886,2.327 -3.46465,4.59291 6.88795,13.24523 2.58555,17.06464 -3.87786,3.44253 -14.99619,-4.13688 -14.99619,-4.13688 l -0.51711,-5.17111 c 0,0 7.94473,5.94715 10.60076,3.36122 4.24112,-4.12918 -8.51766,-12.36992 -4.91255,-17.06464 2.73004,-3.55517 11.56938,4.32979 13.44487,0.25856 2.17113,-4.71298 -11.63821,-6.6104 -10.34221,-11.63498 0.77611,-3.00897 8.13157,-0.066 8.79087,-3.10267 1.39668,-6.43299 -15.60521,-7.26783 -14.22053,-13.70342 0.0743,-0.34552 0.35512,-0.87072 0.51706,-1.16646"
       id="path4204"
       transform="matrix(0.2,0,0,0.2,-0.4,0)"
       inkscape:connector-curvature="0"
       sodipodi:nodetypes="csssssccssssscc" />
    <path
       style="fill:#b6b0b0;fill-opacity:1;stroke:none"
       d="m 721.62738,149.18631 c 18.45624,3.19201 21.74554,2.59228 31.54372,3.61977 l -9.52599,1.11185 -4.02217,2.28533 6.67315,9.87261 -1.82826,5.94184 -10.42109,4.02218 0.18283,6.76456 1.61834,4.90658 -10.60076,0.25855 -4.13688,-1.55133 c -7.17012,-3.03324 -12.30455,-4.03078 -17.06464,-4.65399 l 6.23372,-3.62187 6.03326,-2.92522 1.09696,-5.48478 -3.83935,-8.41 1.82826,-7.86152 z"
       id="path4206"
       inkscape:connector-curvature="0"
       transform="matrix(0.2,0,0,0.2,-0.4,0)"
       sodipodi:nodetypes="cccccccccccccccccc" />
    <path
       style="fill:#b6b0b0;stroke:none;stroke-opacity:1;fill-opacity:1"
       d="m 691.01249,175.91842 c 0.0785,-0.14802 0.10113,-0.28367 0.10538,-0.35949 0.3119,-5.56204 -11.3939,-8.44088 -9.56654,-13.70342 1.8603,-5.35742 14.73199,0.54075 16.28898,-4.91255 1.57593,-5.51964 -12.25898,-7.25579 -11.37643,-12.92775 0.0883,-0.56766 0.0181,-0.39588 0.30058,-0.84853 l 9.33551,1.85241 c -0.32716,0.56394 -0.4927,0.60606 -0.58666,1.32311 -0.74433,5.67999 12.82891,6.46367 12.15209,12.1521 -0.64441,5.41603 -13.51969,3.09605 -13.96198,8.53232 -0.33202,4.08099 9.93874,3.9696 9.30799,8.0152 -0.23963,1.537 0.12909,1.75206 -1.3279,2.31731 z"
       id="path4230"
       transform="matrix(0.2,0,0,0.2,-0.4,0)"
       inkscape:connector-curvature="0"
       sodipodi:nodetypes="cssssccsssscc" />
    <path
       style="fill:#880e0a;stroke:none;stroke-width:1px;stroke-linecap:butt;stroke-linejoin:miter;stroke-opacity:1;fill-opacity:1"
       d="m 672.61718,266.44739 12.06652,4.9363 3.4737,-0.7313 4.38782,-10.78674 12.79783,0 2.74239,-10.78674 5.85043,-0.91413 14.44327,8.41 23.40174,31.99456 16.08869,17.00283 -7.31304,2.92522 -6.21609,7.67869 -6.39891,1.82827 -6.58174,-7.6787 -6.58174,-3.4737 -5.48478,3.10805 -5.85044,8.22717 -4.57065,9.68978 2.92522,6.76457 7.49587,10.96956 -0.18283,5.48479 -6.76457,8.04435 -8.04434,6.58173 -5.11913,3.29087 -8.95848,-0.91413 -9.14131,-2.92521 -13.71195,-2.7424 -3.83935,-44.60956 z"
       id="path4278"
       inkscape:connector-curvature="0"
       transform="matrix(0.2,0,0,0.2,-0.4,0)" />
    <path
       style="fill:#b6b0b0;fill-opacity:1;stroke:none"
       d="m 712.47327,206.66326 11.15239,4.9363 12.43217,4.57065 -5.66761,5.11913 -3.47369,18.09979 -2.55957,12.43217 -11.15239,-3.29087 -5.85043,0.91413 -0.54848,9.87261 -4.93631,1.46261 -8.59282,-1.64544 -1.82826,0.36566 -1.64544,9.87261 -3.65652,1.4626 -14.62609,-4.38782 1.64544,-19.19674 9.68978,-0.54848 9.50696,-4.38783 1.82826,-7.67869 2.74239,-6.21609 8.41,-4.02217 9.1413,-6.76457 -0.7313,-6.76456 z"
       id="path4208"
       inkscape:connector-curvature="0"
       transform="matrix(0.2,0,0,0.2,-0.4,0)" />
    <path
       style="fill:#b6b0b0;fill-opacity:1;stroke:none"
       d="m 727.8327,187.96958 c 0,0 21.1233,6.07105 18.87452,15.25476 -2.45524,10.02686 -21.20152,9.30798 -21.20152,9.30798 l 14.22054,2.84411 9.04943,0 5.94676,-6.46388 1.03423,-10.60076 -2.06845,-6.72244 -6.20532,-3.61977 -13.18631,-0.51711 z"
       id="path4212"
       inkscape:connector-curvature="0"
       transform="matrix(0.2,0,0,0.2,-0.4,0)"
       sodipodi:nodetypes="csccccccccc" />
    <path
       style="fill:#880e0a;fill-opacity:1;stroke:none"
       d="m 582.26616,120.22814 c 10.09836,-9.38436 25.07127,-15.51903 43.43726,-19.39164 -21.10496,-4.142468 -45.03428,-2.071342 -69.55133,1.29278 z"
       id="path4216"
       inkscape:connector-curvature="0"
       transform="matrix(0.2,0,0,0.2,-0.4,0)"
       sodipodi:nodetypes="cccc" />
    <path
       style="fill:#b6b0b0;stroke:none;stroke-width:1px;stroke-linecap:butt;stroke-linejoin:miter;stroke-opacity:1;fill-opacity:1"
       d="m 114.99761,391.68326 c 0.64114,-8.23283 0.73827,-16.4162 -1.27978,-24.40728 l 9.32413,2.1025 0.82271,24.04163 z"
       id="path4272"
       inkscape:connector-curvature="0"
       transform="matrix(0.2,0,0,0.2,-0.4,0)"
       sodipodi:nodetypes="ccccc" />
    <path
       style="fill:#b6b0b0;stroke:none;stroke-width:1px;stroke-linecap:butt;stroke-linejoin:miter;stroke-opacity:1;fill-opacity:1"
       d="m 678.28479,361.88261 7.67869,0 12.06653,4.9363 8.22717,1.82826 7.49587,-2.92522 9.1413,-6.21608 6.58174,-8.22718 0.73131,-5.66761 -7.31305,-8.77565 -2.55956,-8.22717 1.27978,-8.59283 7.6787,-9.87261 5.11913,-3.47369 8.41,4.9363 7.31304,6.03326 3.83935,-2.19391 6.03326,-5.30196 4.205,-4.205 7.49587,-1.27978 12.615,0.73131 2.55956,3.10804 -3.10804,5.30196 -5.85043,2.74239 -4.205,3.10804 2.19391,6.21609 2.92522,7.67869 -1.27979,4.93631 -4.38782,4.57065 -5.30196,2.19391 -2.92522,-1.46261 -5.48478,-12.98065 -4.75348,-0.7313 -2.74239,8.59282 2.92522,10.78674 -6.39891,15.17457 -4.93631,16.08869 -16.08869,14.80892 -13.34631,4.38782 -18.64826,-0.54848 -16.63717,-2.19391 z"
       id="path4276"
       inkscape:connector-curvature="0"
       transform="matrix(0.2,0,0,0.2,-0.4,0)" />
    <path
       style="fill:#b6b0b0;stroke:none;stroke-width:1px;stroke-linecap:butt;stroke-linejoin:miter;stroke-opacity:1;fill-opacity:1"
       d="m 676.38023,347.75665 1.29277,8.27377 c 0,0 10.3371,5.81552 14.73765,3.36121 3.26102,-1.81876 2.03154,-8.36815 5.2652,-10.23511 4.42766,-2.5563 15.69185,11.82845 21.10742,6.09823 4.88626,-5.17016 -7.50566,-13.07288 -6.98099,-20.1673 0.1649,-2.22974 2.80313,-3.73109 3.10266,-5.94677 0.7677,-5.67884 -6.49775,-12.98902 -3.61977,-16.80608 2.34006,-3.10361 8.97949,2.06275 11.63498,-0.77567 3.59169,-3.83911 -4.63522,-13.29117 0,-15.77186 4.10964,-2.19941 7.12996,8.95303 11.63498,7.75666 2.7939,-0.74196 1.06323,-7.09974 3.87833,-7.75666 6.52985,-1.52378 8.16938,13.97449 14.56781,11.96926 3.71908,-1.16553 5.08238,-10.93504 5.08238,-10.93504 l -4.65399,-3.87832 c 0,0 0.4403,7.53226 -2.327,8.27376 -2.89799,0.77651 -8.62239,-14.15117 -14.99619,-12.6692 -2.9321,0.68174 -0.73106,7.42684 -3.61978,8.27376 -5.36747,1.57365 -8.91445,-11.71809 -13.96197,-9.30798 -5.93584,2.83427 3.3914,15.62354 -1.80989,19.65019 -2.96901,2.2985 -8.55446,-4.55343 -11.11787,-1.80989 -5.43782,5.81992 6.5192,15.97659 4.3327,23.63561 -0.70263,2.46124 -3.79309,2.56197 -4.3327,5.06401 -1.18452,5.4923 8.75606,10.90603 5.94677,15.77186 -1.54231,2.67136 -10.27524,-11.43332 -16.28898,-9.56654 -4.27143,1.32593 -1.92897,9.9817 -5.68821,12.1521 -4.03669,2.33058 -13.18631,-4.654 -13.18631,-4.654 z"
       id="path4274"
       inkscape:connector-curvature="0"
       transform="matrix(0.2,0,0,0.2,-0.4,0)"
       sodipodi:nodetypes="ccsssssssssssccsssssssssssc" />
  </g>
  <g
     inkscape:groupmode="layer"
     id="layer5"
     inkscape:label="eyes"
     style="display:inline"
     sodipodi:insensitive="true">
    <path
       style="fill:#ffffff;fill-opacity:1;stroke:none"
       d="m 184.65435,410.14869 c -7.79515,0.13952 -16.97053,-1.73852 -22.30479,-4.02217 l -5.11912,-22.48761 3.65652,-14.99174 10.42108,-13.3463 4.75348,-1.27979 -0.7313,10.23827 0.36565,20.84217 3.10804,18.09978 0.54848,4.205 z"
       id="path4044"
       inkscape:connector-curvature="0"
       transform="matrix(0.2,0,0,0.2,-0.4,0)"
       sodipodi:nodetypes="ccccccccccc" />
    <path
       style="fill:url(#linearGradient4038);fill-opacity:1;stroke:none"
       d="M 177.88978,407.04065 C 176.0357,393.49231 176.04312,379.57166 176.61,365.53913 l 11.51804,-15.72305 13.34631,-2.55956 15.54022,0.18283 10.96956,1.27978 c 1.1625,22.54496 1.68842,46.45259 -3.10804,61.61239 l -15.72305,2.01109 -22.12195,-2.55957 z"
       id="path4014"
       inkscape:connector-curvature="0"
       transform="matrix(0.2,0,0,0.2,-0.4,0)"
       sodipodi:nodetypes="cccccccccc" />
    <path
       style="fill:#ffffff;fill-opacity:1;stroke:none"
       d="m 182,349.625 c -4.37819,0 -8.13769,2.72156 -9.71875,6.59375 l 3.96875,-1.84375 -1.375,13.84375 c 1.8724,1.75345 4.37953,2.8125 7.125,2.8125 5.80589,0 10.53125,-4.78064 10.53125,-10.6875 0,-5.90687 -4.72536,-10.71875 -10.53125,-10.71875 z"
       transform="matrix(0.2,0,0,0.2,-0.4,0)"
       id="path3986"
       inkscape:connector-curvature="0" />
    <path
       style="fill:url(#linearGradient4108);fill-opacity:1;stroke:#000000;stroke-width:1px;stroke-linecap:butt;stroke-linejoin:miter;stroke-opacity:1"
       d="m 401.48609,349.99891 15.35739,-2.92522 15.90587,-3.47369 24.13304,0.91413 1.64544,10.42109 0.18283,23.03608 -4.02218,18.09978 -6.39891,9.68979 -21.20783,0.91413 -19.37956,-2.74239 -6.58174,-7.31305 -1.46261,-31.99456 z"
       id="path4100"
       inkscape:connector-curvature="0"
       transform="matrix(0.2,0,0,0.2,-0.4,0)" />
    <path
       style="fill:#ffffff;fill-opacity:1;stroke:none"
       d="m 413.90625,348.21875 -13.34375,2.34375 -0.78125,13.46875 c 1.89727,1.89857 4.50355,3.0625 7.375,3.0625 5.80589,0 10.5,-4.78064 10.5,-10.6875 0,-3.29057 -1.4524,-6.22556 -3.75,-8.1875 z"
       transform="matrix(0.2,0,0,0.2,-0.4,0)"
       id="path3986-1"
       inkscape:connector-curvature="0" />
    <path
       style="fill:#000000;fill-opacity:1;stroke:none"
       d="m 180.0837,407.58913 c -0.35314,-1.34267 -2.48382,0.46047 -2.7441,-0.84617 -3.7342,-18.74585 -4.24079,-40.89365 -3.52308,-51.70091 0.11066,-1.66627 2.99846,-0.44813 3.70761,-1.75227 -1.24836,17.5744 -0.7787,35.5783 2.55957,54.29935 z"
       id="path4040"
       inkscape:connector-curvature="0"
       transform="matrix(0.2,0,0,0.2,-0.4,0)"
       sodipodi:nodetypes="csscc" />
    <path
       style="fill:#000000;fill-opacity:1;stroke:none"
       d="m 225.60739,348.71913 3.29087,0.7313 c 3.06279,20.7406 1.80868,40.14223 -1.46261,59.41848 l -4.38782,0.73131 c 4.24482,-18.93704 5.62,-39.02194 2.55956,-60.88109 z"
       id="path4042"
       inkscape:connector-curvature="0"
       transform="matrix(0.2,0,0,0.2,-0.4,0)"
       sodipodi:nodetypes="ccccc" />
    <path
       style="fill:#020100;fill-opacity:1;stroke:none;display:inline"
       d="M 32.384029,81.8327 C 23.855786,66.430943 44.556934,68.026517 47.121672,70.391634 43.718193,69.672115 28.725249,67.260832 32.384029,81.8327 z"
       id="path3802"
       inkscape:connector-curvature="0"
       sodipodi:nodetypes="ccc" />
    <path
       style="fill:#020100;fill-opacity:1;stroke:none;display:inline"
       d="m 34.51711,81.186311 c 4.081861,2.775655 9.29853,1.861113 12.022813,0.258556 -3.618643,0.419537 -7.20539,0.415117 -12.022813,-0.258556 z"
       id="path3804"
       inkscape:connector-curvature="0"
       sodipodi:nodetypes="ccc" />
    <path
       style="fill:#020100;fill-opacity:1;stroke:none;display:inline"
       d="m 47.122433,70.378706 c -2.682282,-2.884256 -5.402526,-5.540744 -8.222054,-7.60152 1.479266,2.618132 4.49558,5.174338 7.099842,7.126054 0.404876,0.303426 0.712006,0.23103 1.122212,0.475466 z"
       id="path3006"
       inkscape:connector-curvature="0"
       sodipodi:nodetypes="ccsc" />
    <path
       style="fill:#ffffff;fill-opacity:1;stroke:none"
       d="m 447.37544,405.94369 c 13.41588,0.34045 26.61085,0.15626 36.19956,-8.59282 l 4.205,-16.82 -3.47369,-23.95022 -18.28261,-11.15239 -8.22717,0.7313 1.27978,17.00283 -2.19392,20.47652 -5.85043,18.64826 z"
       id="path4098"
       inkscape:connector-curvature="0"
       transform="matrix(0.2,0,0,0.2,-0.4,0)"
       sodipodi:nodetypes="cccccccccc" />
    <path
       style="fill:#020100;fill-opacity:1;stroke:none;display:inline"
       d="M 77.825096,70.65019 C 90.878858,65.428523 103.49846,69.311282 96.117872,79.958175 98.763434,66.702068 87.978861,69.131089 77.825096,70.65019 z"
       id="path3806"
       inkscape:connector-curvature="0"
       sodipodi:nodetypes="ccc" />
    <path
       style="fill:#020100;fill-opacity:1;stroke:none;display:inline"
       d="m 79.311788,80.21673 c 3.826991,2.81157 10.278247,1.839523 11.958175,0.06464 -4.036909,0.583477 -8.263676,0.379115 -11.958175,-0.06464 z"
       id="path3808"
       inkscape:connector-curvature="0"
       sodipodi:nodetypes="ccc" />
    <path
       style="fill:#020100;fill-opacity:1;stroke:none;display:inline"
       d="m 77.916351,70.624336 c 2.459336,-2.512928 5.308428,-4.81412 8.454752,-6.502664 -1.967066,2.296466 -4.366014,3.690284 -7.209024,6.077048 -0.36913,0.309892 -0.819858,0.203636 -1.245728,0.425616 z"
       id="path3776"
       inkscape:connector-curvature="0"
       sodipodi:nodetypes="ccsc" />
    <path
       style="fill:#000000;fill-opacity:1;stroke:none"
       d="M 407.885,403.93261 401.48609,402.47 c -4.79698,-15.53899 -5.30887,-32.91444 -3.29087,-51.37413 l 5.85044,-0.91413 c -3.86816,17.1592 -1.61343,35.12946 3.83934,53.75087 z"
       id="path4094"
       inkscape:connector-curvature="0"
       transform="matrix(0.2,0,0,0.2,-0.4,0)"
       sodipodi:nodetypes="ccccc" />
    <path
       style="fill:#000000;fill-opacity:1;stroke:none"
       d="m 447.92392,404.48108 6.58174,-1.27978 c 7.19397,-23.05859 7.74045,-40.9469 6.21608,-57.22456 l -6.21608,-0.91413 c 3.8419,20.27045 2.24644,40.12264 -6.58174,59.41847 z"
       id="path4096"
       inkscape:connector-curvature="0"
       transform="matrix(0.2,0,0,0.2,-0.4,0)"
       sodipodi:nodetypes="ccccc" />
  </g>
  <g
     inkscape:groupmode="layer"
     id="layer3"
     inkscape:label="hair"
     sodipodi:insensitive="true"
     style="display:inline">
    <path
       style="fill:#2c2527;fill-opacity:1;stroke:#000000;stroke-width:1px;stroke-linecap:butt;stroke-linejoin:miter;stroke-opacity:1"
       d="m 35.376848,405.12098 -1.635403,-14.3149 -4.78327,-31.02661 -0.775665,-38.91255 7.239543,-42.14449 7.239544,-25.3384 12.669202,-29.9924 15.771863,-26.63117 18.615969,-21.20153 18.615969,-17.06463 19.39164,-15.25476 28.69962,-14.47908 21.97718,-7.75666 23.52852,-5.1711 16.54753,-11.11787 26.88973,-12.669204 25.07985,-10.342205 23.01141,-7.756654 29.99239,-8.532319 30.76806,-4.912548 29.21673,-1.292776 29.21673,0.517111 34.38784,3.878327 17.8403,2.844106 21.71863,5.688213 45.5057,18.098859 34.90495,20.42586 52.74525,65.93156 37.49049,47.83269 5.31459,135.99415 -22.67043,18.28261 -88.48783,-48.26609 -28.33804,5.48478 -12.615,-13.3463 -14.07761,-17.00283 -10.96957,-12.24935 8.22718,39.67326 -13.89478,-13.89478 -23.7674,-31.08043 -24.86434,35.83391 -6.03326,-4.57065 -29.06935,-32.36022 0.54848,22.85326 0,28.52087 -4.205,-12.98065 -6.39892,-24.13304 -5.85043,-34.18848 -6.39892,-1.82826 -30.8976,58.68717 -14.44327,-26.14413 -7.31304,-20.65935 -8.04435,-33.64 -17.18565,36.01674 -31.81174,36.74804 -12.98065,-21.025 -2.92522,-7.86152 -5.85043,12.06652 -6.21609,16.63718 -5.48478,23.76739 -1.64544,-3.65652 -0.7313,-19.92805 2.01109,-29.25217 -56.17332,47.76332 -0.13712,-21.25354 1.09696,-16.82 -53.5083,64.91102 -17.77566,0.71103 -25.920154,26.88973 0.193917,-19.52091 5.171102,-36.97338 -36.326996,25.46768 -7.110266,38.0076 z"
       id="path3972"
       inkscape:connector-curvature="0"
       transform="matrix(0.2,0,0,0.2,-0.4,0)" />
    <path
       style="fill:#020100;fill-opacity:1;stroke:none"
       d="m 36.199565,399.54478 c 3.180698,-65.12027 19.26082,-120.25388 52.653914,-161.98391 -3.873037,11.9787 -7.286285,24.53214 -7.313044,41.31869 24.383035,-41.34826 43.847005,-63.07891 62.892175,-75.32435 -35.83215,35.35497 -49.612955,80.95375 -61.795218,130.90348 l -8.775652,9.87261 -21.207827,31.44609 z"
       id="path3932"
       inkscape:connector-curvature="0"
       transform="matrix(0.2,0,0,0.2,-0.4,0)"
       sodipodi:nodetypes="cccccccc" />
    <path
       style="fill:#020100;fill-opacity:1;stroke:none"
       d="M 77.518261,389.67217 C 107.35909,260.85389 136.10407,242.25464 173.29277,217.5095 l -10.92015,18.29278 -18.87452,29.21673 -14.22053,33.61217 -6.20533,26.37262 -3.10266,19.13308 -0.25855,26.37263 -11.63498,-4.13689 -3.61978,9.8251 -4.39543,3.36121 -8.273768,-4.13688 -13.444867,23.26996 z"
       id="path3934"
       inkscape:connector-curvature="0"
       transform="matrix(0.2,0,0,0.2,-0.4,0)"
       sodipodi:nodetypes="cccccccccccccc" />
    <path
       style="fill:#020100;fill-opacity:1;stroke:none"
       d="m 120.22814,366.11407 c 7.01165,-49.59825 26.73286,-91.02607 53.0038,-128.24335 -2.26309,13.8328 -6.45518,29.23682 -1.55133,37.23194 9.5828,-16.95338 14.6205,-20.27145 21.01809,-27.66918 l -9.12456,17.58553 -7.56844,23.69106 -0.96387,8.62833 -16.80609,18.87453 -13.70342,21.20152 -12.41065,21.46007 -11.89353,19.65019 z"
       id="path3936"
       inkscape:connector-curvature="0"
       transform="matrix(0.2,0,0,0.2,-0.4,0)"
       sodipodi:nodetypes="cccccccccccc" />
    <path
       style="fill:#020100;fill-opacity:1;stroke:none"
       d="m 173.49049,340.51711 c 9.07796,-57.59233 35.62125,-110.86392 77.30799,-140.65399 l -2.58555,6.46388 -8.14449,27.01901 -5.1711,24.69201 -3.61977,20.1673 -2.19772,10.21293 -14.22053,14.47909 -14.9962,17.19391 -11.89354,14.47909 -10.60076,17.06464 -2.32699,0.64639 z"
       id="path3938"
       inkscape:connector-curvature="0"
       transform="matrix(0.2,0,0,0.2,-0.4,0)"
       sodipodi:nodetypes="ccccccccccccc" />
    <path
       style="fill:#020100;fill-opacity:1;stroke:none"
       d="m 254.93536,236.8365 c -3.97008,27.33329 -3.9423,52.93665 7.73067,67.57699 1.40957,-38.12752 9.40918,-77.90648 27.43283,-103.51615 -0.72853,20.87279 -1.06038,44.25253 6.29942,57.21641 2.48255,-13.42469 6.41246,-28.12979 13.60933,-36.532 l 1.29277,10.85931 1.88071,14.99242 -4.57065,11.70086 -14.26044,29.25218 -11.33522,21.39065 -8.77565,16.82 -9.32413,16.0887 -4.9363,8.22717 -6.03326,-17.5513 -3.65653,-23.76739 -2.01108,-22.85327 1.46261,-21.025 3.29087,-19.74521 z"
       id="path3940"
       inkscape:connector-curvature="0"
       transform="matrix(0.2,0,0,0.2,-0.4,0)"
       sodipodi:nodetypes="ccccccccccccccccccc" />
    <path
       style="fill:#020100;fill-opacity:1;stroke:none"
       d="M 346.27261,327.87695 C 337.1481,307.19763 330.3521,274.97651 332.195,262.05956 c 2.466,7.01684 6.20676,15.04404 15.90587,19.74522 C 345.16834,256.21444 340.94696,230.97561 343.09375,204 l 7.20104,16.74087 13.89478,24.31587 12.615,19.37956 -0.36565,26.87544 -1.82827,31.44608 -2.55956,13.52913 -4.57065,18.83109 -11.15239,-12.43217 z"
       id="path3942"
       inkscape:connector-curvature="0"
       transform="matrix(0.2,0,0,0.2,-0.4,0)"
       sodipodi:nodetypes="ccccccccccccc" />
    <path
       style="fill:#020100;fill-opacity:1;stroke:none"
       d="m 428.54435,321.11239 c -5.68836,-27.04612 -6.3808,-49.5859 -37.47935,-94.88674 0.14696,-1.46958 38.17061,24.35067 49.54587,37.47935 1.47257,-14.95784 -7.75952,-31.18821 -14.62608,-45.5237 l 6.03326,4.57065 7.13021,7.6787 7.6787,8.04435 6.21609,12.06652 4.57065,13.52913 3.47369,30.71478 -1.09695,15.35739 -3.10805,21.75631 -2.55956,13.52913 -4.93631,-3.4737 z"
       id="path3944"
       inkscape:connector-curvature="0"
       transform="matrix(0.2,0,0,0.2,-0.4,0)"
       sodipodi:nodetypes="ccccccccccccccc" />
    <path
       style="fill:#020100;fill-opacity:1;stroke:none"
       d="m 460.90457,284.36434 c -1.5056,2.00746 14.48678,24.19691 22.12196,32.72587 0.26501,-8.54018 -12.79783,-51.37413 -12.79783,-51.37413 l 8.41,15.72305 10.42109,15.72304 3.29087,14.99174 9.1413,44.24391 -7.86152,-12.98065 -18.64826,-25.59565 -14.26044,-17.36848 z"
       id="path3946"
       inkscape:connector-curvature="0"
       transform="matrix(0.2,0,0,0.2,-0.4,0)"
       sodipodi:nodetypes="ccccccccccc" />
    <path
       style="fill:#020100;fill-opacity:1;stroke:none"
       d="m 519.59174,331.16782 c -10.08681,-30.68815 -22.04617,-61.53381 -39.67326,-90.68174 13.75369,12.81155 27.5331,26.30991 37.1137,44.79239 -4.86226,-31.66674 -18.33344,-54.57198 -32.36022,-80.80913 32.73135,21.81725 47.34183,43.63449 66.91435,65.45174 l 8.59282,32.9087 4.75348,58.32152 -0.54848,10.23826 -5.48478,6.58174 -1.46261,6.03326 -2.74239,2.92522 -6.39891,-7.86152 -4.93631,-6.03326 -3.83934,-1.27978 -5.48479,5.48478 -1.27978,-12.06652 -0.36565,-18.09979 z"
       id="path3948"
       inkscape:connector-curvature="0"
       transform="matrix(0.2,0,0,0.2,-0.4,0)"
       sodipodi:nodetypes="cccccccccccccccccc" />
    <path
       style="fill:#2c2527;fill-opacity:1;stroke:#000000;stroke-width:1px;stroke-linecap:butt;stroke-linejoin:miter;stroke-opacity:1"
       d="m 575.54373,557.18631 13.70342,-11.63498 19.13308,-22.75285 14.22053,-1.55133 -6.98099,66.19011 -18.35741,57.91635 -5.94677,8.27377 -4.39544,-35.93917 -6.20532,-40.85171 z"
       id="path3974"
       inkscape:connector-curvature="0"
       transform="matrix(0.2,0,0,0.2,-0.4,0)" />
    <path
       style="fill:#2c2527;fill-opacity:1;stroke:#000000;stroke-width:1px;stroke-linecap:butt;stroke-linejoin:miter;stroke-opacity:1"
       d="m 533.6578,551.88593 0,-7.36882 8.01521,-3.49049 2.06844,4.0076 4.65399,10.73004 5.55893,6.3346 -0.51711,47.96198 -15.38403,34 -16.6768,14.60836 4.52471,-21.3308 6.07605,-36.97338 0.90494,-14.60837 1.68061,-18.35741 z"
       id="path3976"
       inkscape:connector-curvature="0"
       transform="matrix(0.2,0,0,0.2,-0.4,0)" />
    <path
       style="fill:#020100;fill-opacity:1;stroke:none"
       d="m 545.1874,252.00413 c -6.6581,-32.16828 -20.02705,-48.99745 -31.08044,-71.11935 l 7.6787,8.31859 14.80891,20.01945 10.78674,13.89479 13.71195,21.20782 13.89479,26.87544 11.88369,25.59565 10.05544,21.93913 10.05543,9.68978 19.92805,25.59565 20.29369,26.50979 9.14131,16.27152 5.48478,-10.78674 8.59283,-27.05826 6.03326,-30.89761 1.73359,16.85277 1.03422,46.79848 -0.25856,42.40304 -3.10266,45.24715 -4.91255,44.21292 -9.30798,45.24715 -5.68822,23.01141 -8.53232,22.75285 -6.72243,12.6692 1.55133,-16.03042 1.29278,-32.8365 0.25855,-15.25475 -1.80988,-24.30418 -6.46388,20.42585 -13.70342,39.30038 -12.41065,26.88974 -16.80608,25.85551 c 7.30675,-39.92235 16.95368,-73.29219 21.20152,-121.77947 -11.99441,2.9981 -22.26089,18.09439 -32.57795,32.8365 l 1.80989,-12.92775 8.01521,-6.72244 2.8441,-9.04943 1.29278,-7.75665 -3.61977,-5.68821 -2.06845,-2.06844 20.1673,-18.35742 9.8251,-15.51331 4.65399,-18.35741 1.55133,-18.61597 -2.32699,-17.32319 -4.654,-16.28898 -6.72243,-9.30798 -13.44487,-8.53232 5.17111,-6.98099 0,-6.98099 -3.61978,-6.46388 -6.98098,-3.10266 -5.68822,1.80989 -4.91254,4.65399 -3.10267,3.36122 -4.65399,-4.39544 -9.30798,-8.27377 -0.51711,-21.71863 -3.36122,-26.63118 c 0,0 -4.65399,-38.52471 -5.94677,-39.04182 -1.29277,-0.51711 -10.44758,-30.07952 -10.44758,-30.07952 z"
       id="path3950"
       inkscape:connector-curvature="0"
       transform="matrix(0.2,0,0,0.2,-0.4,0)"
       sodipodi:nodetypes="ccccccccccccccccccccccccccccccccccccccccccccccccccccccccccccsc" />
    <path
       style="fill:#020100;fill-opacity:1;stroke:none"
       d="M 633.50128,360.73323 C 618.44339,293.21727 595.68392,259.50305 566.69011,220.7801 c 26.05847,7.67224 48.84657,18.81078 70.62992,38.41761 -8.30917,-25.54152 -27.01611,-46.26265 -51.95121,-69.41824 19.62404,7.58428 31.4155,15.16857 42.40304,22.75285 -24.41399,-29.65957 -54.79104,-89.60416 -113.76425,-89.97719 14.52041,-3.35194 31.41397,-2.63561 52.74524,5.68822 -15.84939,-18.3943 -44.75271,-38.355069 -109.11026,-62.570347 0,0 26.88973,5.171102 27.92395,5.688213 1.03422,0.51711 28.18251,9.56654 28.18251,9.56654 l 19.39164,9.049429 24.30418,12.410645 28.44106,19.39164 26.88974,23.78707 28.69962,34.64639 20.68441,27.92395 6.98099,17.06464 4.65399,35.1635 2.06844,31.80228 0.51711,30.50951 -3.87833,22.75285 -7.4981,32.06083 -8.79087,19.90875 z"
       id="path3952"
       inkscape:connector-curvature="0"
       transform="matrix(0.2,0,0,0.2,-0.4,0)"
       sodipodi:nodetypes="ccccccccsccccccccccccccc" />
    <path
       style="fill:#020100;fill-opacity:1;stroke:none"
       d="m 719.55894,250.53992 7.23954,0.77567 0.51711,-7.75666 -1.03422,-11.11787 4.65399,-9.04943 6.20533,10.08365 8.27376,28.69962 3.36122,25.07985 -17.84031,-19.65019 z"
       id="path3954"
       inkscape:connector-curvature="0"
       transform="matrix(0.2,0,0,0.2,-0.4,0)" />
    <path
       style="fill:#020100;fill-opacity:1;stroke:none"
       d="m 745.28517,339.61217 c 0.25856,-0.77567 8.53232,-7.4981 8.53232,-7.4981 l 0,15.12547 z"
       id="path3956"
       inkscape:connector-curvature="0"
       transform="matrix(0.2,0,0,0.2,-0.4,0)" />
    <path
       style="fill:#020100;fill-opacity:1;stroke:none"
       d="m 678.10196,389.48935 10.23826,4.02217 3.29087,-3.4737 2.74239,-7.13021 3.83935,-1.82826 5.11913,2.74239 7.31305,13.52913 5.85043,-0.36565 7.31304,-5.11914 6.76457,-6.94739 -2.01109,-5.85043 -3.83935,-6.03326 4.205,-4.38783 7.13022,0 8.41,3.10805 0.54848,-4.38783 0.18283,-8.41 3.65652,-2.55957 5.66761,-2.55956 1.09695,30.53196 -0.7313,38.39347 -0.73131,30.16631 -2.74239,38.39348 -1.46261,37.11369 -4.38782,26.32696 -2.19392,-34.00565 -2.19391,-30.71479 -4.205,-22.67043 -1.82826,18.46543 -5.11913,36.93087 -4.9363,26.50979 -5.30196,23.95021 -8.41,26.32696 -7.86152,20.65935 -4.75348,8.41 -2.92522,-29.80065 -1.27978,-27.60674 -3.29087,-26.32696 -6.03326,-19.01391 -0.91413,13.16348 -1.64544,30.1663 -5.66761,33.82283 -4.38782,22.67043 -2.19391,0.54848 -0.18283,-13.52913 -1.09696,-23.76739 -4.75348,-33.09152 3.4737,-22.67044 7.6787,-40.03891 1.4626,-29.98348 1.09696,-57.04174 z"
       id="path3958"
       inkscape:connector-curvature="0"
       transform="matrix(0.2,0,0,0.2,-0.4,0)" />
    <path
       style="fill:#020100;fill-opacity:1;stroke:none"
       d="m 552.13479,559.51761 4.57065,-4.205 4.57065,-16.63718 6.03326,6.21609 4.57065,6.39891 10.60392,-1.09695 -1.82826,12.98065 1.82826,28.33804 -3.4737,10.42109 -7.31304,25.23 0.18282,-19.37956 -2.74239,-20.11087 -7.67869,14.99173 -17.55131,31.62892 -12.43217,19.56239 -10.78674,11.70087 2.37674,-10.78674 c 13.74556,-32.33019 28.53784,-64.80992 29.06935,-95.25239 z"
       id="path3960"
       inkscape:connector-curvature="0"
       transform="matrix(0.2,0,0,0.2,-0.4,0)"
       sodipodi:nodetypes="cccccccccccccccccc" />
    <path
       style="fill:#2c2527;fill-opacity:1;stroke:#000000;stroke-width:1px;stroke-linecap:butt;stroke-linejoin:miter;stroke-opacity:1"
       d="m 96.69962,535.46768 0.775665,-8.92015 4.007605,-0.51711 -1.03422,8.79087 1.1635,14.9962 9.69582,-4.65399 5.04182,32.8365 -4.91255,48.09125 -13.961975,36.45628 c 0,0 -5.946768,7.88593 -5.81749,7.11026 0.129277,-0.77566 1.551331,-30.12167 1.551331,-30.12167 l 2.197718,-24.1749 1.551331,-21.46008 0,-20.55513 0,-20.68441 z"
       id="path3978"
       inkscape:connector-curvature="0"
       transform="matrix(0.2,0,0,0.2,-0.4,0)" />
    <path
       style="fill:#020100;fill-opacity:1;stroke:none"
       d="m 108.85171,546.58555 6.46388,-9.30798 6.20532,-6.20533 11.89354,3.61977 7.75665,19.6502 -5.94677,19.39163 -7.75665,26.63118 -12.15209,23.01141 -13.18631,27.40684 -6.722436,11.63498 c 8.106346,-36.43607 18.533586,-71.4796 13.444866,-115.8327 z"
       id="path3962"
       inkscape:connector-curvature="0"
       transform="matrix(0.2,0,0,0.2,-0.4,0)"
       sodipodi:nodetypes="ccccccccccc" />
    <path
       style="fill:#2c2527;fill-opacity:1;stroke:#000000;stroke-width:1px;stroke-linecap:butt;stroke-linejoin:miter;stroke-opacity:1"
       d="m 145.04943,558.9962 7.11027,9.43726 8.27376,12.15209 -1.55133,21.58935 -2.71483,18.87453 -6.98099,13.96198 -0.12928,-20.29658 -0.38783,-17.3232 L 146.85932,578 z"
       id="path3980"
       inkscape:connector-curvature="0"
       transform="matrix(0.2,0,0,0.2,-0.4,0)" />
    <path
       style="fill:#020100;fill-opacity:1;stroke:none"
       d="m 154.09886,572.95817 c 5.15234,10.54832 1.81713,27.69807 1.29278,42.6616 l 9.30798,-33.61217 z"
       id="path3964"
       inkscape:connector-curvature="0"
       transform="matrix(0.2,0,0,0.2,-0.4,0)"
       sodipodi:nodetypes="cccc" />
    <path
       style="fill:#020100;fill-opacity:1;stroke:none"
       d="M 176.59316,593.38403 204,612.51711 l 11.37643,3.87833 15.25475,8.01521 -4.13688,12.15209 -4.91255,-14.22053 -10.34221,-4.13689 -11.89353,17.84031 -16.80609,19.90874 -1.55133,-20.1673 -3.10266,-24.56274 z"
       id="path3966"
       inkscape:connector-curvature="0"
       transform="matrix(0.2,0,0,0.2,-0.4,0)" />
    <path
       style="fill:#aa9ca0;fill-opacity:1;stroke:none"
       d="m 68.258555,201.15589 c 45.533595,34.44612 118.934275,41.02517 188.228135,51.71103 -56.84919,1.18099 -107.4217,7.01886 -205.292774,-22.23574 z"
       id="path3968"
       inkscape:connector-curvature="0"
       transform="matrix(0.2,0,0,0.2,-0.4,0)"
       sodipodi:nodetypes="cccc" />
    <path
       style="fill:#aa9ca0;fill-opacity:1;stroke:none"
       d="m 407.48289,253.38403 c 93.62053,-11.23748 177.74553,-39.09263 244.61914,-63.68568 l 11.09189,15.7237 3.87832,7.75666 0,2.58555 c -125.34068,38.50084 -194.88605,45.8147 -259.58935,37.61977 z"
       id="path3970"
       inkscape:connector-curvature="0"
       transform="matrix(0.2,0,0,0.2,-0.4,0)"
       sodipodi:nodetypes="cccccc" />
  </g>
  <g
     inkscape:groupmode="layer"
     id="layer2"
     inkscape:label="lines"
     style="display:inline"
     sodipodi:insensitive="true">
    <path
       style="fill:#020100;fill-opacity:1;stroke:none"
       d="m 6.3346008,81.444867 c -4.2230672,36.370093 -2.1115336,18.185044 0,0 z"
       id="path3026"
       inkscape:connector-curvature="0"
       sodipodi:nodetypes="cc" />
    <path
       style="fill:#020100;fill-opacity:1;stroke:none"
       d="M 55.761957,25.024564 C 28.425836,16.758985 0.32428109,41.474257 6.8559783,78.866847 9.9944929,73.219378 13.133007,69.072659 16.271522,65.611956 L 16.088696,67.53163 C 12.262757,71.955994 9.5081257,76.891049 6.4903261,81.700652 -3.6485201,39.531195 31.873288,14.034986 55.761957,25.024564 z"
       id="path3796"
       inkscape:connector-curvature="0"
       sodipodi:nodetypes="cccccc" />
    <path
       style="fill:#020100;fill-opacity:1;stroke:none"
       d="m 30.703422,38.977186 c -7.694839,6.246958 -14.797735,20.072285 -15.319391,39.752852 2.060867,-3.986645 5.32973,-8.165101 8.079848,-11.117871 l 0.06464,1.615969 c -2.951838,2.49573 -5.839036,6.982175 -8.855513,13.057035 -0.457143,-24.34751 7.842227,-38.547317 16.030418,-43.307985 z"
       id="path3798"
       inkscape:connector-curvature="0"
       sodipodi:nodetypes="cccccc" />
    <path
       style="fill:#020100;fill-opacity:1;stroke:none"
       d="m 34.258555,43.501901 c -4.322361,8.78314 -10.769953,14.987929 -10.277566,30.8327 2.864314,-5.557815 7.152106,-11.843308 10.820151,-16.592586 l -0.154751,2.113498 C 30.83096,64.087015 27.174802,70.516771 23.334601,77.04943 21.832721,58.929584 28.667638,52.054719 34.258555,43.501901 z"
       id="path3800"
       inkscape:connector-curvature="0"
       sodipodi:nodetypes="cccccc" />
    <path
       style="fill:#020100;fill-opacity:1;stroke:none"
       d="M 24.950571,86.357415 C 25.786784,85 26.89907,83.642586 28.764259,82.285171 28.198532,83.95297 26.705364,85.19797 24.950571,86.357415 z"
       id="path3810"
       inkscape:connector-curvature="0"
       sodipodi:nodetypes="ccc" />
    <path
       style="fill:#020100;fill-opacity:1;stroke:none"
       d="m 36.321845,85.81476 c 0.721947,-1.060323 0.714423,-1.343633 1.642628,-1.901184 -0.542873,1.096467 -0.710552,1.153098 -1.642628,1.901184 z"
       id="path3822"
       inkscape:connector-curvature="0"
       sodipodi:nodetypes="ccc" />
    <path
       sodipodi:nodetypes="ccc"
       inkscape:connector-curvature="0"
       id="path3824"
       d="m 33.418252,85.904943 c 0.836213,-1.357415 1.029467,-1.500266 2.345255,-2.622744 -0.65714,1.302147 -0.590462,1.463299 -2.345255,2.622744 z"
       style="fill:#020100;fill-opacity:1;stroke:none" />
    <path
       style="fill:#020100;fill-opacity:1;stroke:none"
       d="m 30.186312,86.09886 c 0.836213,-1.357415 0.955391,-1.596365 2.82058,-2.95378 -0.565727,1.667799 -1.065787,1.794335 -2.82058,2.95378 z"
       id="path3826"
       inkscape:connector-curvature="0"
       sodipodi:nodetypes="ccc" />
    <path
       sodipodi:nodetypes="ccc"
       inkscape:connector-curvature="0"
       id="path3828"
       d="m 27.406844,86.486692 c 0.836213,-1.357415 1.719966,-2.669122 3.585155,-4.026537 -0.565727,1.667799 -1.830362,2.867092 -3.585155,4.026537 z"
       style="fill:#020100;fill-opacity:1;stroke:none" />
    <path
       style="fill:#020100;fill-opacity:1;stroke:none"
       d="m 98.237366,85.964745 c 0.61653,-1.088086 1.436606,-2.176172 2.811784,-3.264259 -0.41711,1.336887 -1.517998,2.334863 -2.811784,3.264259 z"
       id="path3810-5"
       inkscape:connector-curvature="0"
       sodipodi:nodetypes="ccc" />
    <path
       style="fill:#020100;fill-opacity:1;stroke:none"
       d="m 86.467955,85.098897 c 0.721947,-1.060323 0.714423,-1.343633 1.642628,-1.901184 -0.542873,1.096467 -0.710552,1.153098 -1.642628,1.901184 z"
       id="path3822-2"
       inkscape:connector-curvature="0"
       sodipodi:nodetypes="ccc" />
    <path
       sodipodi:nodetypes="ccc"
       inkscape:connector-curvature="0"
       id="path3824-7"
       d="m 88.444591,85.415315 c 0.836213,-1.357415 1.029467,-1.500266 2.345255,-2.622744 -0.65714,1.302147 -0.590462,1.463299 -2.345255,2.622744 z"
       style="fill:#020100;fill-opacity:1;stroke:none" />
    <path
       style="fill:#020100;fill-opacity:1;stroke:none"
       d="m 93.227859,85.350677 c 0.836213,-1.357415 0.955391,-1.596365 2.82058,-2.95378 -0.565727,1.667799 -1.065787,1.794335 -2.82058,2.95378 z"
       id="path3826-4"
       inkscape:connector-curvature="0"
       sodipodi:nodetypes="ccc" />
    <path
       sodipodi:nodetypes="ccc"
       inkscape:connector-curvature="0"
       id="path3828-2"
       d="m 95.84573,85.512274 c 0.768369,-1.204879 1.58042,-2.369186 3.294281,-3.574066 -0.519828,1.480385 -1.68186,2.544911 -3.294281,3.574066 z"
       style="fill:#020100;fill-opacity:1;stroke:none" />
    <path
       sodipodi:nodetypes="ccc"
       inkscape:connector-curvature="0"
       id="path3860"
       d="m 90.965502,85.512274 c 0.836213,-1.357415 0.955391,-1.596365 2.82058,-2.95378 -0.565727,1.667799 -1.065787,1.794335 -2.82058,2.95378 z"
       style="fill:#020100;fill-opacity:1;stroke:none" />
    <path
       sodipodi:nodetypes="ccc"
       inkscape:connector-curvature="0"
       id="path3862"
       d="m 101.10864,85.712965 c 0.72194,-1.060323 0.71442,-1.343633 1.64262,-1.901184 -0.54287,1.096467 -0.71055,1.153098 -1.64262,1.901184 z"
       style="fill:#020100;fill-opacity:1;stroke:none" />
    <path
       style="fill:#020100;fill-opacity:1;stroke:none"
       d="m 50.917066,93.767174 c -0.01778,2.36197 1.361003,2.082368 11.15224,2.082368 10.70827,0 10.310161,-0.322439 11.97526,-2.539433 -0.0261,3.013979 -0.929666,3.306305 -12.020272,3.48203 -9.09223,0.144062 -12.510265,0.349895 -11.107228,-3.024965 z"
       id="path3864"
       inkscape:connector-curvature="0"
       sodipodi:nodetypes="cscsc" />
    <path
       style="fill:#020100;fill-opacity:1;stroke:none"
       d="m 53.293805,96.372445 2.879511,0.09141 c -1.733193,4.778725 4.362534,12.569295 9.735489,12.569295 6.051082,0 7.616506,-5.76881 6.993098,-13.483425 l 0.639891,-0.594185 c 1.689827,10.07379 -2.078452,15.08316 -7.770109,15.08316 -4.647516,0 -11.171604,-5.7125 -12.47788,-13.666255 z"
       id="path3866"
       inkscape:connector-curvature="0"
       sodipodi:nodetypes="ccsccsc" />
    <path
       style="fill:#020100;fill-opacity:1;stroke:none"
       d="m 192.6987,247.43348 c -6.90693,13.67314 -20.53477,43.76137 -16.82001,102.65684 17.62913,-26.73401 36.40293,-49.44679 54.48218,-66.82293 l -1.46261,9.1413 c -13.01072,8.91882 -36.43285,40.28542 -55.21348,64.90327 -7.74698,-76.10997 11.35818,-97.75058 19.01392,-109.87848 z"
       id="path3778"
       inkscape:connector-curvature="0"
       transform="matrix(0.2,0,0,0.2,-0.4,0)"
       sodipodi:nodetypes="cccccc" />
    <path
       style="fill:#020100;fill-opacity:1;stroke:none"
       d="m 250.79848,199.86312 c -12.87474,40.97103 -22.44694,82.96292 -20.94297,136.25855 5.90753,-31.43568 12.5616,-41.96834 19.13308,-54.81369 l 0.51711,7.49811 c -7.5421,11.58167 -15.88183,36.97252 -18.87452,59.20912 -15.17158,-42.3773 15.30184,-143.89036 20.1673,-148.15209 z"
       id="path3780"
       inkscape:connector-curvature="0"
       transform="matrix(0.2,0,0,0.2,-0.4,0)"
       sodipodi:nodetypes="cccccc" />
    <path
       style="fill:#020100;fill-opacity:1;stroke:none"
       d="m 257.52091,227.78707 c -7.1501,36.37139 -12.38053,75.33891 2.35837,119.33238 20.75192,-33.08072 43.59287,-76.51243 52.5846,-102.26774 l 1.29277,4.91255 c -16.77428,39.77985 -35.14277,72.3496 -53.90874,105.49049 -24.07511,-54.23544 -6.2011,-121.08226 -2.327,-127.46768 z"
       id="path3790"
       inkscape:connector-curvature="0"
       transform="matrix(0.2,0,0,0.2,-0.4,0)"
       sodipodi:nodetypes="cccccc" />
    <path
       style="fill:#020100;fill-opacity:1;stroke:none"
       d="m 378.52472,246.92015 c 2.70272,28.05206 8.05049,57.09028 15.51331,78.34221 1.25086,-17.6387 0.50909,-48.22951 0.5171,-73.94677 3.0932,33.71446 3.8866,64.36253 2.84411,92.56274 -14.76238,-38.2741 -19.92296,-76.19723 -18.87452,-96.95818 z"
       id="path3792"
       inkscape:connector-curvature="0"
       transform="matrix(0.2,0,0,0.2,-0.4,0)"
       sodipodi:nodetypes="ccccc" />
    <path
       style="fill:#020100;fill-opacity:1;stroke:none"
       d="m 310.00761,221.58175 c 7.18254,49.05868 23.3354,96.62545 56.62357,130.57034 7.39892,-24.0614 8.87414,-59.92129 8.53232,-91.78707 l 2.8441,5.42966 c 0.0777,27.859 0.51262,60.20525 -10.08364,93.59695 -46.3794,-52.45841 -56.7859,-97.19024 -57.91635,-137.80988 z"
       id="path3794"
       inkscape:connector-curvature="0"
       transform="matrix(0.2,0,0,0.2,-0.4,0)"
       sodipodi:nodetypes="cccccc" />
    <path
       style="fill:#020100;fill-opacity:1;stroke:none"
       d="m 343.09375,204 c 5.05882,14.57969 16.65924,39.21655 37.4625,67.66748 l -0.71455,-7.8198 C 362.03577,240.63538 350.68024,220.99102 343.09375,204 z m 52.65625,79.5 0.1875,7.78125 c 14.40096,17.14079 32.0285,35.06469 53.4375,52.59375 l 3.875,-0.78125 C 429.81341,321.08004 410.97441,301.34509 395.75,283.5 z"
       transform="matrix(0.2,0,0,0.2,-0.4,0)"
       id="path3797"
       inkscape:connector-curvature="0"
       sodipodi:nodetypes="ccccccccc" />
    <path
       style="fill:#020100;fill-opacity:1;stroke:none"
       d="m 425.98479,218.1813 c 31.83498,25.26892 40.92895,67.11981 25.9613,126.51565 l 4.75348,-0.36565 c 11.87406,-58.41312 6.07959,-103.75152 -30.71478,-126.15 z"
       id="path3805"
       inkscape:connector-curvature="0"
       transform="matrix(0.2,0,0,0.2,-0.4,0)"
       sodipodi:nodetypes="cccc" />
    <path
       style="fill:#020100;fill-opacity:1;stroke:none"
       d="m 460.35609,298.62478 -0.36565,4.38783 c 19.22637,19.24583 30.8055,41.55055 45.70652,62.52652 -4.77184,-26.18729 -6.68607,-40.29179 -14.80891,-66.18305 l -5.85044,-7.49587 c 1.93393,0.85952 12.89988,44.28817 13.52913,56.12761 -4.59479,-9.61857 -36.80008,-51.83154 -38.21065,-49.36304 z"
       id="path3809"
       inkscape:connector-curvature="0"
       transform="matrix(0.2,0,0,0.2,-0.4,0)"
       sodipodi:nodetypes="ccccccc" />
    <path
       style="fill:#020100;fill-opacity:1;stroke:none"
       d="m 639.16,635.2076 c 43.82648,-81.15678 43.24594,-224.22888 41.52156,-264.94768 0.66245,-32.94187 -2.85836,-64.69233 -3.74087,-91.67497 -0.96443,-29.48762 -2.47482,-58.51592 -16.20719,-78.68626 C 598.08767,107.88345 514.86672,57.659996 381.00957,57.659996 c -94.89632,0 -183.55739,58.138694 -183.55739,58.138694 l 8.41,0 c 0,0 79.47313,-53.750868 175.87869,-53.750868 133.44641,0 202.57765,42.997988 273.87348,140.410438 12.79666,17.48425 16.03523,47.85297 17.17953,76.11568 1.09326,27.00211 4.09897,58.36013 3.87146,91.72009 -1.52204,77.80163 -1.65772,152.94803 -24.94098,228.31221 -1.93136,6.25148 -8.35415,21.87368 -11.47536,28.28813 z"
       id="path3815"
       inkscape:connector-curvature="0"
       transform="matrix(0.2,0,0,0.2,-0.4,0)"
       sodipodi:nodetypes="ccsssccssscscc" />
    <path
       style="fill:#020100;fill-opacity:1;stroke:none"
       d="m 528.00174,402.47 0.36565,114.08348 4.75348,1.09695 -1.46261,-115.91174 z"
       id="path3817"
       inkscape:connector-curvature="0"
       transform="matrix(0.2,0,0,0.2,-0.4,0)" />
    <path
       style="fill:#020100;fill-opacity:1;stroke:none"
       d="m 582.11826,401.00739 4.38783,0 -2.19391,118.4713 -4.38783,-0.36565 z"
       id="path3819"
       inkscape:connector-curvature="0"
       transform="matrix(0.2,0,0,0.2,-0.4,0)" />
    <path
       style="fill:#020100;fill-opacity:1;stroke:none"
       d="m 529.0987,404.66391 c 22.83472,-3.06767 36.85735,-2.00208 55.21348,-1.09696 l -0.36565,-2.92521 c -15.33418,-1.86708 -44.81179,-2.46629 -54.30854,1.83207 z"
       id="path3821"
       inkscape:connector-curvature="0"
       transform="matrix(0.2,0,0,0.2,-0.4,0)"
       sodipodi:nodetypes="ccccc" />
    <path
       style="fill:#020100;fill-opacity:1;stroke:none"
       d="m 528.74525,404.50951 2.97338,-2.58556 c 0,0 -9.34564,-1.67816 -9.95437,-10.60076 -0.33794,-4.95342 6.15894,-7.66713 12.1521,-6.85171 l 0.25855,-3.49049 c -7.50984,-0.47007 -17.59535,1.38797 -17.45248,10.60076 0.18146,11.70086 12.02282,12.92776 12.02282,12.92776 z"
       id="path3823"
       inkscape:connector-curvature="0"
       transform="matrix(0.2,0,0,0.2,-0.4,0)"
       sodipodi:nodetypes="ccsccsc" />
    <path
       style="fill:#020100;fill-opacity:1;stroke:none"
       d="m 536.11407,393.65019 c 0.1919,-10.8718 -0.0172,-18.81287 5.1711,-19.26236 3.25542,-0.28203 7.68937,16.03042 13.05704,16.03042 4.68799,0 5.57584,-16.80609 12.28136,-16.80609 0,0 4.06344,1.46245 5.77817,3.50291 2.8566,3.39924 4.24396,8.17311 6.5032,8.77847 2.20944,0.59202 5.55894,-10.85932 10.9886,-11.24715 1.18885,-0.0849 11.63498,0.92679 11.63498,9.82509 0,6.32064 -10.70921,16.05125 -19.13308,16.93536 l 2.19772,3.36122 c 0,0 21.46007,-9.76769 21.46007,-20.42585 0,-7.6119 -9.19574,-13.85776 -16.80608,-13.70343 -4.58431,0.093 -10.47148,8.92015 -10.47148,8.92015 -3.1712,0 -5.97774,-10.73003 -12.15209,-10.73003 -8.48865,0 -9.21739,13.8327 -11.76426,13.8327 -4.12993,0 -8.50845,-12.53993 -14.86692,-12.53993 -8.31463,0 -9.0342,18.29162 -3.87833,23.52852 z"
       id="path3825"
       inkscape:connector-curvature="0"
       transform="matrix(0.2,0,0,0.2,-0.4,0)"
       sodipodi:nodetypes="csccssssccsscccsc" />
    <path
       style="fill:#020100;fill-opacity:1;stroke:none"
       d="m 531.58935,515.81749 c 17.68957,4.22226 34.35841,3.48856 50.67681,0.77567 l 0.25856,4.13688 c -21.03507,4.73308 -39.02791,3.66118 -52.32224,-1.5827 z"
       id="path3827"
       inkscape:connector-curvature="0"
       transform="matrix(0.2,0,0,0.2,-0.4,0)"
       sodipodi:nodetypes="ccccc" />
    <path
       style="fill:#020100;fill-opacity:1;stroke:none"
       d="m 532.5724,518.38174 c -18.14502,6.62199 -20.11626,12.14745 -9.50696,16.82 l 0,4.205 c -21.18358,-6.59763 -10.02828,-20.01633 7.31305,-27.05826 z"
       id="path3829"
       inkscape:connector-curvature="0"
       transform="matrix(0.2,0,0,0.2,-0.4,0)"
       sodipodi:nodetypes="ccccc" />
    <path
       style="fill:#020100;fill-opacity:1;stroke:none"
       d="m 535.586,524.65898 c -12.95219,6.57735 -14.24835,20.04971 -5.756,20.04971 3.22312,0 8.19506,-4.87748 12.68995,-4.87748 1.72986,0 0.75566,4.25684 -0.68135,4.25684 -6.47361,0 -12.45381,6.39858 -17.49337,5.55695 -4.90527,-8.2812 -8.6388,-18.78032 11.24077,-24.98602 z"
       id="path3831"
       inkscape:connector-curvature="0"
       transform="matrix(0.2,0,0,0.2,-0.4,0)"
       sodipodi:nodetypes="ccsscc" />
    <path
       style="fill:#020100;fill-opacity:1;stroke:none"
       d="m 561.64174,535.20174 c 6.48634,0 7.51385,13.71195 12.24935,13.71195 5.45212,0 19.28867,-1.74395 19.28867,-23.55239 0,-6.0869 -5.47687,-3.49944 -12.70693,-4.60283 l 2.19391,-4.02217 c 4.83997,-0.14088 14.07761,0.0302 14.07761,9.14131 0,11.95547 -8.88042,28.33804 -22.85326,28.33804 -6.96748,0 -7.75803,-11.82001 -11.33522,-11.8837 -3.76868,0 -0.38266,21.39066 -10.05543,21.39066 -4.97755,0 -9.30937,-19.63456 -10.66184,-19.63456 -2.63179,0 -0.86767,-4.25684 0.68135,-4.25684 2.20645,0 5.94742,17.67531 9.43201,17.67531 6.84725,0 2.45107,-22.30478 9.68978,-22.30478 z"
       id="path3833"
       inkscape:connector-curvature="0"
       transform="matrix(0.2,0,0,0.2,-0.4,0)"
       sodipodi:nodetypes="ccsccsscssscc" />
    <path
       style="fill:#020100;fill-opacity:1;stroke:none"
       d="m 470.2287,265.71608 c 29.6221,48.17401 51.94575,61.61406 90.31609,113.35218 l -2.92522,4.02217 C 525.2356,332.5868 490.27606,315.45952 470.2287,265.71608 z"
       id="path3835"
       inkscape:connector-curvature="0"
       transform="matrix(0.2,0,0,0.2,-0.4,0)"
       sodipodi:nodetypes="cccc" />
    <path
       style="fill:#020100;fill-opacity:1;stroke:none"
       d="m 533.91635,349.56654 c -0.26359,7.72877 -0.23624,20.3881 2.8441,26.11407 l -1.54941,7.8711 -2.84603,-0.63156 c -3.05926,-12.87222 -3.79103,-27.18475 -2.06843,-38.0076 z"
       id="path3837"
       inkscape:connector-curvature="0"
       transform="matrix(0.2,0,0,0.2,-0.4,0)"
       sodipodi:nodetypes="cccccc" />
    <path
       style="fill:#020100;fill-opacity:1;stroke:none"
       d="m 526.93536,212.53232 c 34.29877,52.17485 39.79133,105.50195 40.00834,159.04007 l -4.02217,0.36565 C 563.98975,304.2023 549.24086,254.1445 526.93536,212.53232 z"
       id="path3839"
       inkscape:connector-curvature="0"
       transform="matrix(0.2,0,0,0.2,-0.4,0)"
       sodipodi:nodetypes="cccc" />
    <path
       style="fill:#020100;fill-opacity:1;stroke:none"
       d="m 558.35087,290.58043 c 16.7938,21.01647 32.35599,39.74267 47.53479,68.74261 -14.83409,-69.09287 -63.27333,-143.09892 -91.7787,-178.43826 37.73002,33.64753 86.56133,119.67252 99.09174,194.89261 -16.79078,-28.98247 -34.91813,-55.73733 -54.63363,-79.84526 z"
       id="path3841"
       inkscape:connector-curvature="0"
       transform="matrix(0.2,0,0,0.2,-0.4,0)"
       sodipodi:nodetypes="cccccc" />
    <path
       style="fill:#020100;fill-opacity:1;stroke:none"
       d="m 580.45627,323.19392 3.36122,4.13687 c 2.27737,16.89009 2.73743,32.52803 1.03422,48.34982 l -3.87832,3.36121 c 2.11973,-18.15755 0.709,-37.02118 -0.51712,-55.8479 z"
       id="path3843"
       inkscape:connector-curvature="0"
       transform="matrix(0.2,0,0,0.2,-0.4,0)"
       sodipodi:nodetypes="ccccc" />
    <path
       style="fill:#020100;fill-opacity:1;stroke:none"
       d="m 532.02392,546.53696 5.11913,-1.82827 c -0.56839,45.33123 -6.33043,80.97092 -14.62609,116.64305 40.09254,-55.62763 46.25682,-80.41589 58.50435,-111.15826 l 5.48477,-2.92522 c -22.4791,71.01497 -53.18101,111.53658 -70.93651,127.97826 8.43609,-41.1324 17.47317,-81.90421 16.45435,-128.70956 z"
       id="path3845"
       inkscape:connector-curvature="0"
       transform="matrix(0.2,0,0,0.2,-0.4,0)"
       sodipodi:nodetypes="ccccccc" />
    <path
       style="fill:#020100;fill-opacity:1;stroke:none"
       d="m 654.5174,501.19609 c -17.10886,58.04714 -31.71347,119.18778 -64.72044,157.59608 -3.95142,-25.59152 -7.62343,-54.53595 -10.60391,-91.77869 l 4.02217,-12.06652 c 1.58026,34.01623 5.12337,66.78187 10.60392,91.04738 27.67312,-40.81592 42.06868,-95.14319 60.69826,-144.79825 z"
       id="path3847"
       inkscape:connector-curvature="0"
       transform="matrix(0.2,0,0,0.2,-0.4,0)"
       sodipodi:nodetypes="cccccc" />
    <path
       style="fill:#020100;fill-opacity:1;stroke:none"
       d="m 568.30418,588.21293 c 1.52511,13.84466 1.08504,36.89784 0.25856,50.1597 6.97028,-12.74414 11.2642,-28.96811 14.22053,-46.28137 l -0.77567,-11.11787 c -3.01647,17.80222 -6.2915,27.92566 -9.56653,38.0076 0.59482,-18.12854 -0.0802,-29.52479 -1.55134,-35.93917 z"
       id="path3849"
       inkscape:connector-curvature="0"
       transform="matrix(0.2,0,0,0.2,-0.4,0)"
       sodipodi:nodetypes="ccccccc" />
    <path
       style="fill:#020100;fill-opacity:1;stroke:none"
       d="m 644.27914,532.64217 -3.29087,9.50696 c 2.73938,25.99628 0.11529,60.03777 -1.82827,93.05847 l 2.55957,-7.13021 c 3.62449,-33.65927 4.78222,-65.67404 2.55957,-95.43522 z"
       id="path3851"
       inkscape:connector-curvature="0"
       transform="matrix(0.2,0,0,0.2,-0.4,0)"
       sodipodi:nodetypes="ccccc" />
    <path
       style="fill:#020100;fill-opacity:1;stroke:none"
       d="m 125.4187,369.5613 -4.38783,6.58174 c 0,112.0563 -3.72564,157.43853 33.23054,199.23449 31.11026,35.18447 92.75432,73.1243 192.74251,73.17638 68.431,0.0357 135.95046,-25.55982 187.57956,-83.36869 l 0,-6.94739 C 477.42851,622.5024 415.67587,641.66857 347.36957,641.60652 251.00347,641.51898 194.64712,610.1588 159.51805,573.28241 119.48412,531.25718 129.08644,488.10413 125.4187,369.5613 z"
       id="path3853"
       inkscape:connector-curvature="0"
       transform="matrix(0.2,0,0,0.2,-0.4,0)"
       sodipodi:nodetypes="ccssccssc" />
    <path
       style="fill:#020100;fill-opacity:1;stroke:none"
       d="M 537.14305,91.665648 C 592.94564,75.2926 649.68401,72.020578 706.44,68.995213 l 4.02218,-5.11913 c -57.93737,4.345515 -114.18409,5.521066 -179.53522,23.767391 z"
       id="path3855"
       inkscape:connector-curvature="0"
       transform="matrix(0.2,0,0,0.2,-0.4,0)"
       sodipodi:nodetypes="ccccc" />
    <path
       style="fill:#020100;fill-opacity:1;stroke:none"
       d="m 673.01901,245.62738 1.55133,4.91254 c 0,0 14.60028,-2.3257 19.13308,-7.75665 2.14454,-2.56947 2.58555,-3.15892 2.58555,-8.53232 0,-5.96789 20.42586,-6.95986 20.42586,-20.68441 0,-12.0778 -17.03142,-13.02558 -17.06464,-22.23574 -0.043,-11.93562 19.77947,-11.98955 19.77947,-19.26236 0,-5.07249 -3.42455,-7.32754 -3.23194,-13.57414 0.22259,-7.21879 16.80608,-9.84543 16.80608,-26.88974 0,-30.76994 -33.02154,-26.65723 -34.38782,-45.505702 -0.38336,-5.288681 4.51615,-12.200642 8.07647,-16.474902 1.98803,-2.386687 3.45764,-5.350674 3.45764,-5.350674 l -4.55313,2.692496 c 0,0 -11.82613,11.104102 -11.11787,19.262357 1.6607,19.129335 35.93916,18.645585 35.93916,45.893535 0,12.37792 -18.09886,16.83882 -18.09886,25.07985 0,9.46913 2.97339,9.03561 2.97339,14.34981 0,5.43359 -19.26236,7.73016 -19.26236,20.29658 0,9.1701 16.54753,10.13763 16.54753,21.97718 0,11.47338 -19.90875,10.21611 -19.90875,18.09886 0,3.58472 0.0964,6.66649 -2.32699,9.30799 -4.15472,4.52869 -17.3232,4.39544 -17.3232,4.39544 z"
       id="path3861"
       inkscape:connector-curvature="0"
       transform="matrix(0.2,0,0,0.2,-0.4,0)"
       sodipodi:nodetypes="ccsssssssssccssssssssc" />
    <path
       style="fill:#020100;fill-opacity:1;stroke:none"
       d="m 704.66535,72.180833 c 0,0 17.41092,-22.143305 21.7453,-20.34053 3.93964,1.638593 0.77566,25.46768 0.77566,25.46768 l 4.78327,-0.775665 c 1.62497,-10.865036 2.97294,-26.577151 -2.58554,-28.69962 -5.95581,-2.274185 -11.8016,1.892875 -24.69202,17.969582 z"
       id="path3863"
       inkscape:connector-curvature="0"
       transform="matrix(0.2,0,0,0.2,-0.4,0)"
       sodipodi:nodetypes="csccscc" />
    <path
       style="fill:#020100;fill-opacity:1;stroke:none"
       d="m 715.03422,88.555132 c 11.65109,-10.556444 27.53612,-14.324167 27.53612,-6.851711 0,8.216149 -10.60076,10.826228 -10.60076,18.615969 0,11.11824 25.98479,9.87317 25.98479,21.84791 0,6.73844 -7.2454,12.13722 -7.36881,18.87452 -0.0634,3.4608 2.58554,5.97589 2.58554,9.43727 0,3.64128 -16.03041,0.1574 -16.03041,5.42965 0,4.80554 7.75665,7.34656 7.75665,12.1521 0,3.83066 -13.96198,4.34279 -13.96198,10.08365 0,4.18457 2.327,9.04943 2.327,9.04943 l 3.61978,0.12928 c 0,0 -1.22815,-3.65791 -1.22815,-7.43347 0,-5.74085 13.63879,-6.12771 13.63879,-11.57034 0,-4.98162 -6.46388,-6.26554 -6.46388,-11.24715 0,-4.49355 15.8365,0.23029 15.8365,-5.1711 0,-3.9542 -3.55513,-3.11212 -3.55513,-10.47148 0,-7.4614 7.88592,-12.01257 7.88592,-19.26236 0,-16.27378 -25.20912,-13.10837 -25.20912,-22.365019 0,-7.363655 10.34221,-9.015205 10.34221,-20.296579 0,-10.597143 -34.17899,-2.615638 -33.09506,9.04943 z"
       id="path3865"
       inkscape:connector-curvature="0"
       transform="matrix(0.2,0,0,0.2,-0.4,0)"
       sodipodi:nodetypes="cssssssssccssssssssc" />
    <path
       style="fill:#020100;fill-opacity:1;stroke:none"
       d="m 709.21673,202.44867 c 12.23506,8.18431 26.02185,12.28515 35.48209,11.45754 4.91115,-0.42965 9.6136,-4.54681 9.6136,-12.89909 0,-12.15789 -13.84505,-11.48621 -29.84094,-11.48621 -3.57825,0 -5.72044,-2.85396 -6.41712,-7.28755 2.97042,2.6693 5.88903,3.66778 9.00268,3.66778 13.53737,0 30.92712,-0.91311 30.92712,14.42174 0,9.31134 -4.69908,18.28861 -13.51521,18.41476 -10.58869,0.15151 -23.61038,-3.76084 -32.66667,-12.92775 z"
       id="path3867"
       inkscape:connector-curvature="0"
       transform="matrix(0.2,0,0,0.2,-0.4,0)"
       sodipodi:nodetypes="cssscssscc" />
    <path
       style="fill:#020100;fill-opacity:1;stroke:none"
       d="m 675.21673,263.72623 c 0,0 8.31123,6.02492 12.02282,4.00761 3.26557,-1.77489 -0.99517,-9.53188 2.8441,-10.85932 4.23599,-1.4646 11.81154,2.66755 13.70342,0.77567 2.22043,-2.22043 -1.07649,-7.76129 2.06844,-10.60076 4.67075,-4.21709 15.84679,3.54484 17.84031,1.55133 2.34287,-2.34287 -0.54183,-14.27215 1.29277,-20.42586 1.40033,-4.69709 7.88594,-12.41064 7.88594,-12.41064 l 5.30038,1.1635 c 0,0 -7.78503,7.96411 -9.56654,13.05703 -2.44931,7.00202 4.50111,17.15618 -0.90495,22.23574 -4.36625,4.10256 -14.85761,-2.81091 -17.71102,-1.1635 -2.04112,1.17844 0.30149,9.5354 -3.10266,12.28137 -3.81508,3.07744 -8.97946,-3.80829 -13.18632,-1.29278 -3.30347,1.97533 -0.68769,10.18534 -4.13688,11.89354 -4.73156,2.34329 -15.25475,-4.26616 -15.25475,-4.26616 z"
       id="path3869"
       inkscape:connector-curvature="0"
       transform="matrix(0.2,0,0,0.2,-0.4,0)"
       sodipodi:nodetypes="cssssssccsssssscc" />
    <path
       style="fill:#020100;fill-opacity:1;stroke:none"
       d="m 715.42205,250.53992 5.17111,0.25856 c 15.76325,22.66231 33.07673,38.34863 50.15969,55.07224 l -4.39543,1.55133 C 748.24911,289.59119 730.16334,271.7378 715.42205,250.53992 z"
       id="path3871"
       inkscape:connector-curvature="0"
       transform="matrix(0.2,0,0,0.2,-0.4,0)"
       sodipodi:nodetypes="ccccc" />
    <path
       style="fill:#020100;fill-opacity:1;stroke:none"
       d="m 767.65019,304.57795 1.23004,2.5358 c -12.28723,3.74215 -11.89861,12.61958 -16.87262,12.71895 -9.15927,0.18298 -11.39382,-10.34221 -18.4867,-10.34221 -4.49836,0 -12.44518,16.58142 -12.15209,19.13309 0.919,8.00092 11.11787,12.28011 11.11787,20.42585 0,4.58463 -19.30146,21.98499 -24.30418,21.97718 -9.92517,-0.0155 -19.47413,-7.65076 -29.21673,-6.20532 l -0.25855,-4.91255 c 10.31042,-1.06815 18.55621,6.4285 28.18251,6.46388 6.18795,0.0227 20.55513,-13.12758 20.55513,-17.58175 0,-8.15269 -10.21293,-12.55962 -10.21293,-20.94296 0,-6.3777 10.42839,-22.88213 16.80609,-22.88213 8.1206,0 9.24016,10.83923 18.35741,10.3422 3.66632,-0.19987 3.94881,-9.45073 15.25475,-10.73003 z"
       id="path3873"
       inkscape:connector-curvature="0"
       transform="matrix(0.2,0,0,0.2,-0.4,0)"
       sodipodi:nodetypes="ccsssssccsssssc" />
    <path
       style="fill:#020100;fill-opacity:1;stroke:none"
       d="m 764.41825,308.06844 7.65632,-0.48518 c 0,0 11.70087,-1.77435 11.70087,2.19391 0,6.2016 -12.67774,5.8434 -12.67774,12.00379 0,4.72448 5.83744,7.26631 5.83744,11.99079 0,3.01088 -5.86111,8.67774 -9.55669,8.67774 -4.78464,0 -4.45483,-15.9686 -8.90874,-15.9686 -3.60913,0 -15.83014,11.63433 -15.83014,11.63433 l 2.74239,2.55956 c 0,0 7.84816,-7.49587 11.8837,-7.49587 3.14048,0 3.63996,16.0887 7.31304,16.0887 5.89258,0 15.65389,-8.65644 17.18565,-15.94105 1.03751,-4.93411 -5.98889,-5.6139 -5.98889,-11.46069 0,-4.80613 13.78387,-4.75418 13.78387,-13.21702 0,-7.67482 -21.50693,-4.53929 -21.50693,-4.53929 z"
       id="path3875"
       inkscape:connector-curvature="0"
       transform="matrix(0.2,0,0,0.2,-0.4,0)"
       sodipodi:nodetypes="ccsssssccssssscc" />
    <path
       style="fill:#020100;fill-opacity:1;stroke:none"
       d="m 731.85283,325.13456 c 5.62643,12.94049 25.41283,15.78452 25.41283,24.31587 0,9.13966 -7.86556,6.40122 -9.7812,10.69533 -1.99617,4.47461 -0.19828,11.41754 -2.37674,13.07207 -2.28588,1.73611 -7.06521,-3.12399 -11.33522,-2.83381 -2.61093,0.17743 -5.01924,0.18538 -5.57619,2.74239 -0.93393,4.28772 5.30196,5.7586 5.30196,10.14685 0,5.51635 -18.33502,16.45435 -22.30479,16.45435 -7.06218,0 -6.28683,-16.65006 -13.3463,-16.45435 -4.88642,0.13547 -3.84941,10.70241 -8.59283,11.88369 -3.75547,0.93525 -10.42108,-5.11913 -10.42108,-5.11913 L 678.46761,385.65 c 0,0 6.05258,6.22346 9.68979,5.48478 3.73807,-0.75916 1.78919,-12.49233 9.68978,-12.615 8.41753,-0.13069 11.71371,16.63718 15.26598,16.63718 3.2457,0 14.53468,-7.72387 14.53468,-12.615 0,-3.80149 -6.23262,-5.71479 -5.48479,-9.68979 0.77082,-4.0972 5.72667,-7.24005 9.87261,-7.67869 4.03868,-0.4273 9.48665,5.04801 10.96956,3.5651 1.60607,-1.60607 -1.93495,-6.85796 -0.36565,-10.69532 1.59886,-3.90965 9.87261,-1.59956 9.87261,-7.86152 0,-7.25594 -18.26049,-7.96776 -20.65935,-25.04718 z"
       id="path3877"
       inkscape:connector-curvature="0"
       transform="matrix(0.2,0,0,0.2,-0.4,0)"
       sodipodi:nodetypes="csssssssssccsssssssssc" />
    <path
       style="fill:#020100;fill-opacity:1;stroke:none"
       d="m 733,219 -4.125,5.15625 c 8.30924,14.06755 14.04499,35.62831 17.875,61.53125 L 752.65625,291 C 748.61517,257.90377 742.23826,231.65381 733,219 z m 23.3125,112.9375 -4.75,2.28125 c 0.21646,3.59805 0.39085,7.23864 0.5625,10.90625 l 2.46875,2.375 -0.78125,5.5625 -1.3125,1.15625 c 2.18592,59.51887 -1.72819,128.31119 -6.01255,179.97516 -1.44422,-21.37363 -2.47072,-48.57546 -8.54848,-83.18777 l -1.07973,24.36391 c 4.50237,34.98923 7.84577,81.7993 0.0158,122.1612 15.34375,-16.11096 26.12928,-158.26362 19.4375,-265.59375 z"
       transform="matrix(0.2,0,0,0.2,-0.4,0)"
       id="path3879"
       inkscape:connector-curvature="0"
       sodipodi:nodetypes="ccccccccccccccccc" />
    <path
       style="fill:#020100;fill-opacity:1;stroke:none"
       d="m 740.44566,416.73043 c -4.10398,57.18448 -1.00471,134.63085 -45.5237,229.08109 -0.69198,-45.19708 -1.08136,-82.09785 -9.94834,-114.18139 l 0.36565,-14.90492 c 12.35106,44.14651 13.79688,68.61953 14.70183,107.33001 27.47611,-63.21488 33.47117,-131.33972 40.40456,-207.32479 z"
       id="path3887"
       inkscape:connector-curvature="0"
       transform="matrix(0.2,0,0,0.2,-0.4,0)"
       sodipodi:nodetypes="cccccc" />
    <path
       style="fill:#020100;fill-opacity:1;stroke:none"
       d="m 685.94677,496.68441 c -0.83164,48.17744 0.6492,96.35488 -18.09886,144.53232 0.8202,-22.19699 -0.0681,-46.50785 -4.13688,-83.77186 l 3.10266,-12.41065 c 2.70481,36.14461 4.54652,54.87859 4.91255,76.53232 6.43027,-28.66998 11.89936,-64.70899 14.22053,-124.88213 z"
       id="path3889"
       inkscape:connector-curvature="0"
       transform="matrix(0.2,0,0,0.2,-0.4,0)"
       sodipodi:nodetypes="cccccc" />
    <path
       style="fill:#020100;fill-opacity:1;stroke:none"
       d="m 594.00196,397.53369 4.57065,-3.47369 c 0,0 29.435,7.96452 29.435,55.3963 0,46.05144 -36.74804,69.83957 -36.74804,69.83957 l -8.41,-1.27978 c 0,0 40.0368,-16.93965 40.77022,-67.82848 0.66699,-46.27933 -29.61783,-52.65392 -29.61783,-52.65392 z"
       id="path3891"
       inkscape:connector-curvature="0"
       transform="matrix(0.2,0,0,0.2,-0.4,0)"
       sodipodi:nodetypes="ccsccsc" />
    <path
       style="fill:#020100;fill-opacity:1;stroke:none"
       d="m 585.04348,415.63348 c 15.17754,-4.02358 23.5089,18.40425 20.65935,19.74522 -8.8195,-13.6237 -11.72251,-15.06292 -20.84217,-16.27153 z"
       id="path3893"
       inkscape:connector-curvature="0"
       transform="matrix(0.2,0,0,0.2,-0.4,0)"
       sodipodi:nodetypes="cccc" />
    <path
       style="fill:#020100;fill-opacity:1;stroke:none"
       d="m 284.15209,76.273763 c 0,0 -82.42516,-35.939164 -128.24335,-35.939164 -10.61956,0 -38.26615,18.605459 -38.26615,27.406845 0,12.098962 8.79087,17.948456 8.79087,31.54373 0,18.265456 -31.543726,23.159706 -31.543726,38.266156 0,9.02683 8.015206,25.07985 8.015206,25.07985 l 4.13688,-3.61978 c 0,0 -7.239539,-10.07894 -7.239539,-20.94296 0,-11.90354 32.577939,-19.12307 32.577939,-38.783266 0,-18.687644 -9.82509,-19.030208 -9.82509,-30.768065 0,-6.175093 24.32705,-22.752852 34.90494,-22.752852 44.74402,0 122.03803,32.577947 122.03803,32.577947 z"
       id="path3895"
       inkscape:connector-curvature="0"
       transform="matrix(0.2,0,0,0.2,-0.4,0)"
       sodipodi:nodetypes="cssssccsssscc" />
    <path
       style="fill:#020100;fill-opacity:1;stroke:none"
       d="m 112.98859,28.958174 6.72244,2.326996 c 1.24737,-4.506848 5.05924,-12.466288 8.53232,-10.859316 3.79261,1.754817 14.38789,16.722403 22.75285,24.821293 l 4.65399,-2.844106 c 0,0 -21.63428,-29.992396 -28.44106,-29.992396 -5.46293,0 -14.22054,16.547529 -14.22054,16.547529 z"
       id="path3897"
       inkscape:connector-curvature="0"
       transform="matrix(0.2,0,0,0.2,-0.4,0)"
       sodipodi:nodetypes="ccsccsc" />
    <path
       style="fill:#020100;fill-opacity:1;stroke:none"
       d="m 133.28022,42.48543 c 3.38639,-0.90738 -20.6344,-24.418195 -32.72587,-19.19674 -9.328621,4.028377 -2.011088,27.241088 -2.011088,27.241088 l 6.764568,2.925217 c 0,0 -7.23386,-21.727077 -2.55957,-24.498695 9.54355,-5.65885 24.07415,15.586893 30.53196,13.52913 z"
       id="path3899"
       inkscape:connector-curvature="0"
       transform="matrix(0.2,0,0,0.2,-0.4,0)"
       sodipodi:nodetypes="csccsc" />
    <path
       style="fill:#020100;fill-opacity:1;stroke:none"
       d="m 124.32174,61.864995 c 0,0 -23.29149,-19.188465 -35.576148,-14.816012 -4.400004,1.566084 -7.387983,6.15471 -7.387983,15.730143 0,25.495323 23.584561,19.361993 23.584561,28.155217 0,5.12928 -4.60649,7.130218 -9.872604,7.130218 -7.859632,0 -12.755112,-10.603913 -20.659349,-10.603913 -5.692455,0 -8.90205,9.02954 -7.861521,14.626092 1.569108,8.43955 9.493389,14.46086 17.368479,19.01391 3.293903,1.9044 1.279782,5.48478 1.279782,5.48478 l 3.473696,0.73131 c 0,0 3.290866,-6.94738 -0.548478,-9.14131 -1.279779,-0.73131 -16.271522,-9.52338 -16.271522,-17.5513 0,-2.414724 0.740197,-6.398917 2.559565,-6.398917 10.32229,0 13.445102,9.506957 20.293695,9.506957 9.446117,0 16.088687,-3.16378 16.088687,-12.432174 0,-13.475145 -23.950208,-6.115275 -23.950208,-27.789566 0,-8.876465 -0.377289,-10.645478 2.429431,-12.151123 C 98.802859,46.246452 121.945,64.058908 121.945,64.058908 z"
       id="path3901"
       inkscape:connector-curvature="0"
       transform="matrix(0.2,0,0,0.2,-0.4,0)"
       sodipodi:nodetypes="csssssssccssssssscc" />
    <path
       style="fill:#020100;fill-opacity:1;stroke:none"
       d="m 78.432392,187.10087 3.290869,-2.92522 c 0,0 -25.047173,-14.2142 -25.047173,-26.32696 0,-10.8946 41.318695,-14.07761 41.318695,-14.07761 l -0.182826,-4.205 c 0,0 -46.437827,4.38942 -46.437827,17.36848 0,13.89292 27.058262,30.16631 27.058262,30.16631 z"
       id="path3903"
       inkscape:connector-curvature="0"
       transform="matrix(0.2,0,0,0.2,-0.4,0)"
       sodipodi:nodetypes="ccsccsc" />
    <path
       style="fill:#020100;fill-opacity:1;stroke:none"
       d="m 81.357609,143.77108 4.387826,-0.54848 c 0,0 -11.07777,-8.42046 -8.044347,-12.24934 1.769224,-2.23317 21.573478,-1.27979 21.573478,-1.27979 l 5.667604,-3.47369 c 0,0 -28.850607,-3.39989 -32.177386,2.19392 -3.26952,5.49753 8.592825,15.35738 8.592825,15.35738 z"
       id="path3905"
       inkscape:connector-curvature="0"
       transform="matrix(0.2,0,0,0.2,-0.4,0)"
       sodipodi:nodetypes="ccsccsc" />
    <path
       style="fill:#020100;fill-opacity:1;stroke:none"
       d="m 596.74435,320.19826 c 20.611,22.0396 50.66784,60.98924 58.50435,83.00304 16.03117,-23.42358 17.18646,-48.06215 22.67043,-79.34652 l -1.82826,-20.47652 c -5.01247,32.64633 -7.1306,69.01054 -19.65649,88.81292 C 648.51501,376.28394 612.39934,330.11163 588.7,299.72174 z"
       id="path3907"
       inkscape:connector-curvature="0"
       transform="matrix(0.2,0,0,0.2,-0.4,0)"
       sodipodi:nodetypes="ccccccc" />
    <path
       style="fill:#020100;fill-opacity:1;stroke:none"
       d="m 87.756522,395.33978 3.656522,-0.18283 0.891139,107.73278 -5.429658,0 z"
       id="path3909"
       inkscape:connector-curvature="0"
       transform="matrix(0.2,0,0,0.2,-0.4,0)" />
    <path
       style="fill:#020100;fill-opacity:1;stroke:none"
       d="m 89.977186,398.95057 c 10.862144,-4.96476 22.060544,-5.89444 33.612164,-2.58555 l 0.25856,-5.68821 c -11.01313,-0.0371 -20.84166,-2.44343 -34.387834,2.58555 z"
       id="path3911"
       inkscape:connector-curvature="0"
       transform="matrix(0.2,0,0,0.2,-0.4,0)"
       sodipodi:nodetypes="ccccc" />
    <path
       style="fill:#020100;fill-opacity:1;stroke:none"
       d="m 89.977186,499.01141 c 12.760144,4.32829 24.727754,5.48641 35.422054,1.55133 l 1.29278,4.13688 c -13.41845,4.97926 -25.08069,2.93365 -36.456278,-0.25856 z"
       id="path3913"
       inkscape:connector-curvature="0"
       transform="matrix(0.2,0,0,0.2,-0.4,0)"
       sodipodi:nodetypes="ccccc" />
    <path
       style="fill:#020100;fill-opacity:1;stroke:none"
       d="m 88.167301,398.69201 4.395437,-3.36121 c -2.194705,-2.38857 -5.484143,-2.7779 -6.722434,-7.75666 l -2.585551,5.42966 c 1.289807,2.45461 2.480074,5.06912 4.912548,5.68821 z"
       id="path3915"
       inkscape:connector-curvature="0"
       transform="matrix(0.2,0,0,0.2,-0.4,0)"
       sodipodi:nodetypes="ccccc" />
    <path
       style="fill:#020100;fill-opacity:1;stroke:none"
       d="m 91.91635,378.52471 c 0,0 7.727865,4.75785 11.24715,3.10267 3.80496,-1.78954 2.68576,-10.72816 6.59315,-12.28138 3.98602,-1.58446 10.47149,5.68822 10.47149,5.68822 l -1.1635,-8.53232 c 0,0 -8.27382,-5.29996 -12.15209,-3.61977 -4.24401,1.83864 -1.67814,11.46365 -6.20533,12.41064 -2.306031,0.48237 -5.429653,-4.52471 -5.429653,-4.52471 z"
       id="path3917"
       inkscape:connector-curvature="0"
       transform="matrix(0.2,0,0,0.2,-0.4,0)"
       sodipodi:nodetypes="cssccsscc" />
    <path
       style="fill:#020100;fill-opacity:1;stroke:none"
       d="m 134.70722,537.79468 -0.77566,-3.36122 c 0,0 -8.28357,-5.76288 -12.53992,-5.04182 -7.11001,1.20448 -8.17835,14.80052 -17.3232,17.45247 -3.39581,0.98476 0.2569,-17.43582 -1.42205,-21.97719 -1.87686,-5.0767 -15.617415,6.07725 -16.03042,2.58555 -0.447616,-3.78431 8.067138,-16.05368 2.585551,-14.47909 -1.714432,0.49247 -15.513308,3.41661 -14.220532,0.51711 1.960341,-4.39674 17.840304,-9.30798 17.840304,-9.30798 l -3.102662,-4.39544 c 0,0 -22.235741,7.89671 -22.235741,13.18631 0,6.25124 13.319395,7.13628 14.96483,6.32542 5.258581,-2.59139 -3.329985,9.67108 -0.356465,13.19549 3.28651,3.8954 15.818981,-6.83581 17.452472,-3.49049 0.641843,1.31446 -4.50679,21.64981 2.585543,23.39924 8.46628,2.08833 14.71434,-16.88904 19.13308,-17.8403 4.06699,-0.87554 13.44487,3.23194 13.44487,3.23194 z"
       id="path3919"
       inkscape:connector-curvature="0"
       transform="matrix(0.2,0,0,0.2,-0.4,0)"
       sodipodi:nodetypes="ccssssssccssssssc" />
    <path
       style="fill:#020100;fill-opacity:1;stroke:none"
       d="m 137.85087,547.63391 5.48478,8.41 c -9.77078,41.82012 -28.8295,82.3737 -53.750867,122.12783 2.512454,-50.66929 6.956868,-102.19723 3.656522,-150.28305 l 5.850435,-1.4626 c 1.62437,49.73872 -1.456809,90.76968 -4.280729,132.93516 18.908409,-29.58201 40.367819,-78.69942 43.039859,-111.72734 z"
       id="path3921"
       inkscape:connector-curvature="0"
       transform="matrix(0.2,0,0,0.2,-0.4,0)"
       sodipodi:nodetypes="ccccccc" />
    <path
       style="fill:#020100;fill-opacity:1;stroke:none"
       d="m 142.72243,558.47909 c 4.80504,26.67168 4.41551,65.9114 3.10267,97.47529 7.26486,-20.67956 14.50892,-41.50471 20.42585,-71.61978 l -4.65399,-4.39544 c -1.97377,12.76789 -3.91902,25.49503 -10.60076,44.9886 -1.13733,-22.18497 -1.36209,-47.10767 -4.39544,-63.60457 z"
       id="path3923"
       inkscape:connector-curvature="0"
       transform="matrix(0.2,0,0,0.2,-0.4,0)"
       sodipodi:nodetypes="ccccccc" />
    <path
       style="fill:#020100;fill-opacity:1;stroke:none"
       d="m 171.1635,588.73004 5.68821,4.13688 c 4.60665,19.39164 5.72526,38.78327 6.98099,58.17491 10.74502,-8.90516 19.21415,-21.23861 25.59696,-36.71483 l 5.68821,3.61977 c -10.77801,18.51217 -22.50609,33.98633 -34.90494,47.31559 -1.36069,-25.98385 -2.95621,-51.90062 -9.04943,-76.53232 z"
       id="path3925"
       inkscape:connector-curvature="0"
       transform="matrix(0.2,0,0,0.2,-0.4,0)"
       sodipodi:nodetypes="ccccccc" />
    <path
       style="fill:#020100;fill-opacity:1;stroke:none"
       d="m 218.47909,619.23954 4.65399,1.29278 c 0.82729,2.66406 1.70169,4.80995 2.19772,11.11787 1.58957,-3.99486 0.95169,-6.96541 1.1635,-9.04943 l 4.39543,1.55133 c -1.31619,12.28936 -4.93231,17.56746 -8.27376,23.65779 -0.26813,-10.95166 -1.45865,-20.71738 -4.13688,-28.57034 z"
       id="path3927"
       inkscape:connector-curvature="0"
       transform="matrix(0.2,0,0,0.2,-0.4,0)"
       sodipodi:nodetypes="ccccccc" />
    <path
       style="fill:#020100;fill-opacity:1;stroke:none"
       d="m 580.29,106.29173 c 8.93769,-7.351773 42.97694,-10.533231 52.65392,-3.65652 -12.81398,-1.84882 -37.16358,-0.0886 -52.65392,3.65652 z"
       id="path3929"
       inkscape:connector-curvature="0"
       transform="matrix(0.2,0,0,0.2,-0.4,0)"
       sodipodi:nodetypes="ccc" />
  </g>
</svg>
