<?xml version="1.0" encoding="UTF-8" standalone="no"?>
<!-- Created with Inkscape (http://www.inkscape.org/) -->

<svg
   xmlns:dc="http://purl.org/dc/elements/1.1/"
   xmlns:cc="http://creativecommons.org/ns#"
   xmlns:rdf="http://www.w3.org/1999/02/22-rdf-syntax-ns#"
   xmlns:svg="http://www.w3.org/2000/svg"
   xmlns="http://www.w3.org/2000/svg"
   xmlns:xlink="http://www.w3.org/1999/xlink"
   version="1.1"
   viewBox="0 0 143.53125 143.5625"
   width="1000"
   height="1000"
   id="svg2">
  <metadata
     id="metadata8">
    <rdf:RDF>
      <cc:Work
         rdf:about="">
        <dc:format>image/svg+xml</dc:format>
        <dc:type
           rdf:resource="http://purl.org/dc/dcmitype/StillImage" />
        <dc:title></dc:title>
      </cc:Work>
    </rdf:RDF>
  </metadata>
  <defs
     id="defs6">
    <linearGradient
       id="linearGradient4152">
      <stop
         id="stop4154"
         style="stop-color:#ffffff;stop-opacity:1"
         offset="0" />
      <stop
         id="stop4160"
         style="stop-color:#dddddd;stop-opacity:1"
         offset="0.69904333" />
      <stop
         id="stop4156"
         style="stop-color:#bbbbbb;stop-opacity:1"
         offset="1" />
    </linearGradient>
    <linearGradient
       id="linearGradient4097">
      <stop
         id="stop4099"
         style="stop-color:#ffffff;stop-opacity:1"
         offset="0" />
      <stop
         id="stop4101"
         style="stop-color:#d8d8d8;stop-opacity:1"
         offset="1" />
    </linearGradient>
    <linearGradient
       id="linearGradient4045">
      <stop
         id="stop4047"
         style="stop-color:#8f0101;stop-opacity:1"
         offset="0" />
      <stop
         id="stop4049"
         style="stop-color:#460000;stop-opacity:1"
         offset="1" />
    </linearGradient>
    <linearGradient
       id="linearGradient3979">
      <stop
         id="stop3981"
         style="stop-color:#800101;stop-opacity:1"
         offset="0" />
      <stop
         id="stop3983"
         style="stop-color:#b50000;stop-opacity:1"
         offset="1" />
    </linearGradient>
    <filter
       x="-0.15469454"
       y="-0.15731648"
       width="1.3093891"
       height="1.314633"
       color-interpolation-filters="sRGB"
       id="filter3893">
      <feGaussianBlur
         id="feGaussianBlur3895"
         stdDeviation="0.768157" />
    </filter>
    <filter
       color-interpolation-filters="sRGB"
       id="filter3905">
      <feGaussianBlur
         id="feGaussianBlur3907"
         stdDeviation="1.417037" />
    </filter>
    <radialGradient
       cx="77.262482"
       cy="20.527126"
       r="40.168541"
       fx="77.262482"
       fy="20.527126"
       id="radialGradient3985"
       xlink:href="#linearGradient3979"
       gradientUnits="userSpaceOnUse"
       gradientTransform="matrix(1.7578951,0.22883839,-0.07692307,0.59090906,-59.942583,24.543645)" />
    <linearGradient
       x1="91.490288"
       y1="57.494148"
       x2="96.050766"
       y2="116.90289"
       id="linearGradient4051"
       xlink:href="#linearGradient4045"
       gradientUnits="userSpaceOnUse" />
    <radialGradient
       cx="137.11935"
       cy="27.834681"
       r="71.765625"
       fx="137.11935"
       fy="27.834681"
       id="radialGradient4103"
       xlink:href="#linearGradient4097"
       gradientUnits="userSpaceOnUse"
       gradientTransform="matrix(0.59886455,-0.55712395,0.43821532,0.4710471,38.192638,78.448523)" />
    <radialGradient
       cx="137.11935"
       cy="27.834681"
       r="71.765625"
       fx="137.11935"
       fy="27.834681"
       id="radialGradient4103-5"
       xlink:href="#linearGradient4097-3"
       gradientUnits="userSpaceOnUse"
       gradientTransform="matrix(0.59886455,-0.55712395,0.43821532,0.4710471,38.192638,78.448523)" />
    <linearGradient
       id="linearGradient4097-3">
      <stop
         id="stop4099-5"
         style="stop-color:#ffffff;stop-opacity:1"
         offset="0" />
      <stop
         id="stop4101-5"
         style="stop-color:#d8d8d8;stop-opacity:1"
         offset="1" />
    </linearGradient>
    <radialGradient
       cx="-14.58673"
       cy="52.635326"
       r="71.765625"
       fx="-14.58673"
       fy="52.635326"
       id="radialGradient4120"
       xlink:href="#linearGradient4097-3"
       gradientUnits="userSpaceOnUse"
       gradientTransform="matrix(0.81978546,0.15070586,-0.17333141,0.94286033,89.326376,63.050946)" />
    <radialGradient
       cx="76.586456"
       cy="54.746536"
       r="70.8125"
       fx="76.586456"
       fy="54.746536"
       id="radialGradient4158"
       xlink:href="#linearGradient4152"
       gradientUnits="userSpaceOnUse"
       gradientTransform="matrix(-3.7349508,-0.02862144,0.00953269,-1.2439692,368.09207,83.593753)" />
    <radialGradient
       cx="-14.58673"
       cy="52.635326"
       r="71.765625"
       fx="-14.58673"
       fy="52.635326"
       id="radialGradient4120-9"
       xlink:href="#linearGradient4097-3-1"
       gradientUnits="userSpaceOnUse"
       gradientTransform="matrix(0.81978546,0.15070586,-0.17333141,0.94286033,89.326376,63.050946)" />
    <linearGradient
       id="linearGradient4097-3-1">
      <stop
         id="stop4099-5-4"
         style="stop-color:#ffffff;stop-opacity:1"
         offset="0" />
      <stop
         id="stop4101-5-7"
         style="stop-color:#d8d8d8;stop-opacity:1"
         offset="1" />
    </linearGradient>
    <filter
       color-interpolation-filters="sRGB"
       id="filter4201">
      <feGaussianBlur
         id="feGaussianBlur4203"
         stdDeviation="1.1742587" />
    </filter>
  </defs>
  <g
     transform="translate(-3.15625,-2.375)"
     id="layer1"
     style="display:none">
    <image
       xlink:href="file:///home/balmung/www/htdocs/svg/toukou-Dodgeball.png"
       x="0"
       y="0"
       width="150"
       height="150"
       id="image10" />
  </g>
  <g
     transform="translate(-3.15625,-2.375)"
     id="layer3"
     style="display:inline">
    <path
       d="m 129.77528,70.786514 a 54.63483,54.494381 0 1 1 -109.269661,0 54.63483,54.494381 0 1 1 109.269661,0 z"
       transform="matrix(1.0328231,0,0,1.035485,-2.668404,0.39282032)"
       id="path3956"
       style="fill:url(#linearGradient4051);fill-opacity:1;stroke:none;display:inline" />
    <path
       d="m 74.9375,17.25 c -22.26531,0 -41.538544,12.895326 -50.71875,31.625 12.642369,4.007189 29.422922,6.46875 47.84375,6.46875 20.892479,0 39.6616,-3.152881 52.6875,-8.15625 C 115.25969,29.382869 96.521948,17.25 74.9375,17.25 z"
       id="path3977"
       style="fill:url(#radialGradient3985);fill-opacity:1;stroke:none" />
  </g>
  <g
     transform="translate(-3.15625,-2.375)"
     id="layer2"
     style="display:inline">
    <path
       d="m 72.5625,27.59375 c -16.476617,0.411674 -45.15625,16.990781 -45.15625,49.1875 0,34.74042 29.093297,48.65625 45.28125,48.65625 15.592077,0 28.19649,-6.45803 28.59375,-23.03125 C 101.6641,86.433491 88.70432,79.404278 78.1875,76.875 67.881885,74.396517 55.812223,68.421872 55.5625,54.53125 55.21636,35.277571 70.274858,28.810491 75.6875,27.71875 c -0.97796,-0.11649 -2.026559,-0.152445 -3.125,-0.125 z M 77.25,93.75 c 4.19129,0 7.59375,3.402461 7.59375,7.59375 0,4.1913 -3.40246,7.59375 -7.59375,7.59375 -4.19129,0 -7.5625,-3.40245 -7.5625,-7.59375 0,-4.191289 3.37121,-7.59375 7.5625,-7.59375 z"
       id="path3007-1"
       style="fill:#000000;fill-opacity:1;stroke:none;filter:url(#filter3905)" />
    <path
       d="M 70.96875,24.53125 C 54.492133,24.942924 25.8125,41.522031 25.8125,73.71875 c 0,34.74042 29.093297,48.6875 45.28125,48.6875 15.592078,0 28.227749,-6.48928 28.625,-23.0625 0.38286,-15.972758 -12.608179,-22.970722 -23.125,-25.5 C 66.288135,71.365267 54.249723,65.359372 54,51.46875 53.65386,32.215071 68.681108,25.747991 74.09375,24.65625 c -0.97796,-0.11649 -2.026559,-0.152445 -3.125,-0.125 z m 3.125,67.8125 c 4.191292,0 7.59375,3.402459 7.59375,7.59375 0,4.1913 -3.402458,7.59375 -7.59375,7.59375 -4.191291,0 -7.59375,-3.40245 -7.59375,-7.59375 0,-4.191291 3.402459,-7.59375 7.59375,-7.59375 z"
       id="path3007"
       style="fill:#fdfdfd;fill-opacity:1;stroke:none" />
    <path
       d="m 79.648829,48.601681 a 5.958765,5.8594522 0 1 1 -11.917531,0 5.958765,5.8594522 0 1 1 11.917531,0 z"
       transform="matrix(1.3453032,0,0,1.3681051,-23.098232,-15.441784)"
       id="path3819-3"
       style="fill:#000000;fill-opacity:1;stroke:none;filter:url(#filter3893)" />
    <path
       d="m 79.648829,48.601681 a 5.958765,5.8594522 0 1 1 -11.917531,0 5.958765,5.8594522 0 1 1 11.917531,0 z"
       transform="matrix(1.2735867,0,0,1.295173,-20.119388,-14.685076)"
       id="path3819"
       style="fill:#ffffff;fill-opacity:1;stroke:none" />
    <path
       d="m 132.58427,61.938202 a 63.623596,56.039326 0 1 1 -127.2471957,0 63.623596,56.039326 0 1 1 127.2471957,0 z"
       id="path4053"
       style="fill:none;stroke:none" />
  </g>
  <g
     transform="translate(-3.15625,-2.375)"
     id="layer5">
    <path
       d="m 74.846923,14.735606 c -32.426865,0 -58.693767,26.292467 -58.693767,58.71933 0,32.426864 26.266902,58.719324 58.693767,58.719324 32.426857,0 58.719317,-26.29246 58.719317,-58.719324 0,-32.426863 -26.29246,-58.71933 -58.719317,-58.71933 z m 0,3.426834 c 30.301147,0 55.409537,25.38113 55.409537,55.292496 0,29.911364 -24.7186,55.487394 -55.409537,55.487394 -30.690947,0 -55.461829,-24.79645 -55.461829,-55.487394 0,-30.690948 25.160673,-55.292496 55.461829,-55.292496 z"
       id="path4075-5-4"
       style="fill:#000000;fill-opacity:1;stroke:none;display:inline;filter:url(#filter4201)" />
  </g>
  <g
     transform="translate(-3.15625,-2.375)"
     id="layer4"
     style="display:inline">
    <path
       d="m 75.03125,3.3125 c -39.110145,0 -70.8125,31.695581 -70.8125,70.78125 0,39.08567 31.702355,70.75 70.8125,70.75 39.11015,0 70.8125,-31.66433 70.8125,-70.75 0,-39.085669 -31.70235,-70.78125 -70.8125,-70.78125 z M 74.6875,15.125 c 30.95293,0 58.40625,26.442667 58.40625,58.8125 0,32.36984 -27.72873,58.10181 -57.40625,58 -29.677525,-0.10181 -59,-23.13302 -59,-57.625 0,-34.491987 27.047069,-59.1875 58,-59.1875 z"
       id="path4139"
       style="fill:url(#radialGradient4158);fill-opacity:1;stroke:none" />
    <path
       d="m 74.90625,2.375 c -39.640112,0 -71.75,32.141139 -71.75,71.78125 0,39.64011 32.109888,71.78125 71.75,71.78125 39.64011,0 71.78125,-32.14114 71.78125,-71.78125 C 146.6875,34.516139 114.54636,2.375 74.90625,2.375 z m 0,1.6875 C 113.61554,4.0625 145,35.446956 145,74.15625 145,112.86554 113.61554,144.25 74.90625,144.25 36.196955,144.25 4.84375,112.86554 4.84375,74.15625 4.84375,35.446956 36.196955,4.0625 74.90625,4.0625 z"
       id="path4075"
       style="fill:url(#radialGradient4103);fill-opacity:1;stroke:none" />
    <path
       d="m 74.8468,13.612008 c -33.04742,0 -59.816995,26.795629 -59.816995,59.843048 0,33.047424 26.769575,59.843044 59.816995,59.843044 33.04742,0 59.84305,-26.79562 59.84305,-59.843044 0,-33.047419 -26.79563,-59.843048 -59.84305,-59.843048 z m 0,3.492414 c 30.88103,0 56.46991,25.866852 56.46991,56.350634 0,30.483784 -25.19163,56.549264 -56.46991,56.549264 -31.278282,0 -56.523207,-25.27098 -56.523207,-56.549264 0,-31.278284 25.642176,-56.350634 56.523207,-56.350634 z"
       id="path4075-5"
       style="fill:url(#radialGradient4120);fill-opacity:1;stroke:none;display:inline" />
  </g>
</svg>
